G04 EAGLE Gerber RS-274X export*
G75*
%MOMM*%
%FSLAX34Y34*%
%LPD*%
%INTop Copper*%
%IPPOS*%
%AMOC8*
5,1,8,0,0,1.08239X$1,22.5*%
G01*
G04 Define Apertures*
%ADD10R,1.508000X1.508000*%
%ADD11C,1.508000*%
%ADD12C,1.879600*%
%ADD13C,1.260000*%
%ADD14R,1.866900X1.866900*%
%ADD15C,1.866900*%
%ADD16C,0.300000*%
D10*
G36*
X-119492Y-57656D02*
X-133423Y-63427D01*
X-139194Y-49496D01*
X-125263Y-43725D01*
X-119492Y-57656D01*
G37*
D11*
X55433Y22961D03*
D12*
X176466Y81867D03*
X153734Y70533D03*
X25380Y240591D03*
X20Y242009D03*
X-182699Y149721D03*
X-198301Y129679D03*
X-203966Y-84556D03*
X-227834Y-93244D03*
X-25399Y-241455D03*
X-1Y-241145D03*
X194835Y-136556D03*
X211565Y-117444D03*
D13*
X121768Y120410D03*
X183032Y158990D03*
X-36196Y191005D03*
X36196Y189995D03*
X-175393Y72166D03*
X-133247Y131034D03*
X-151282Y-102358D03*
X-204318Y-151642D03*
X23499Y-178053D03*
X-48899Y-177547D03*
X174359Y-73168D03*
X134609Y-133681D03*
D14*
G36*
X245079Y78656D02*
X251951Y61300D01*
X234595Y54428D01*
X227723Y71784D01*
X245079Y78656D01*
G37*
D15*
X215900Y127000D03*
D16*
X-48899Y-177547D02*
X-48892Y-177554D01*
X-48892Y-218024D01*
X-27144Y-239772D01*
X-25399Y-241455D01*
X-203633Y-98313D02*
X-203966Y-84556D01*
X-203633Y-98313D02*
X-216280Y-110960D01*
X-216280Y-139680D01*
X-204318Y-151642D01*
X134609Y-160009D02*
X134609Y-133681D01*
X134609Y-160009D02*
X139700Y-165100D01*
X166290Y-165100D01*
X194835Y-136556D01*
X166516Y93614D02*
X139010Y93614D01*
X166516Y93614D02*
X176436Y83694D01*
X139010Y93614D02*
X121768Y120410D01*
X176436Y83694D02*
X176466Y81867D01*
X-36196Y191005D02*
X-49402Y177800D01*
X-63500Y177800D01*
X-76200Y190500D01*
X-76200Y203200D01*
X-63500Y215900D01*
X689Y215900D01*
X25380Y240591D01*
X-175393Y84866D02*
X-175393Y72166D01*
X-175393Y84866D02*
X-182699Y92171D01*
X-182699Y114249D01*
X-172639Y124309D01*
X-172639Y147081D02*
X-175279Y149721D01*
X-182699Y149721D01*
X-172639Y147081D02*
X-172639Y124309D01*
X-226200Y-24882D02*
X-226200Y-90480D01*
X-226200Y-24882D02*
X-202259Y-941D01*
X-226200Y-90480D02*
X-227834Y-93244D01*
X-198301Y129679D02*
X-201318Y131196D01*
X56550Y24882D02*
X106314Y24882D01*
X151554Y70122D01*
X56550Y24882D02*
X55433Y22961D01*
X151554Y70122D02*
X153734Y70533D01*
X-202259Y75259D02*
X-202259Y-941D01*
X-202259Y75259D02*
X-228600Y101600D01*
X-228600Y114300D01*
X-211704Y131196D01*
X-201318Y131196D01*
X76200Y-13926D02*
X172948Y-13926D01*
X238835Y51961D01*
X10357Y-53576D02*
X-129343Y-53576D01*
X238835Y51961D02*
X239837Y66542D01*
X25400Y-38533D02*
X10357Y-53576D01*
X25400Y-38533D02*
X25400Y-38100D01*
X38100Y-25400D01*
X64726Y-25400D01*
X76200Y-13926D01*
X16888Y145286D02*
X23496Y151895D01*
X-133247Y139214D02*
X-133247Y131034D01*
X23496Y177295D02*
X36196Y189995D01*
X23496Y177295D02*
X23496Y151895D01*
X15152Y-129452D02*
X-119457Y-129452D01*
X-151282Y-102358D01*
X155702Y-54512D02*
X174359Y-73168D01*
X155702Y-54512D02*
X136259Y-54512D01*
X86596Y-104174D01*
X86596Y-154704D01*
X76140Y-165160D01*
X73791Y165100D02*
X48896Y189995D01*
X36196Y189995D01*
X183032Y172568D02*
X183032Y158990D01*
X183032Y172568D02*
X177800Y177800D01*
X165100Y177800D01*
X152400Y165100D01*
X73791Y165100D01*
X76140Y-165160D02*
X63560Y-165160D01*
X50667Y-178053D01*
X25400Y-139700D02*
X15152Y-129452D01*
X25400Y-139700D02*
X25400Y-176152D01*
X23499Y-178053D01*
X50667Y-178053D01*
X215900Y127000D02*
X215900Y139700D01*
X196610Y158990D01*
X183032Y158990D01*
X16888Y145286D02*
X-69086Y145286D01*
X-76200Y152400D01*
X-120061Y152400D01*
X-133247Y139214D01*
M02*
