G04 EAGLE Gerber RS-274X export*
G75*
%MOMM*%
%FSLAX34Y34*%
%LPD*%
%INBottom Copper*%
%IPPOS*%
%AMOC8*
5,1,8,0,0,1.08239X$1,22.5*%
G01*
G04 Define Apertures*
%ADD10R,1.508000X1.508000*%
%ADD11C,1.508000*%
%ADD12C,1.879600*%
%ADD13C,1.260000*%
%ADD14R,1.866900X1.866900*%
%ADD15C,1.866900*%
%ADD16C,0.300000*%
D10*
G36*
X-119492Y-57656D02*
X-133423Y-63427D01*
X-139194Y-49496D01*
X-125263Y-43725D01*
X-119492Y-57656D01*
G37*
D11*
X55433Y22961D03*
D12*
X176466Y81867D03*
X153734Y70533D03*
X25380Y240591D03*
X20Y242009D03*
X-182699Y149721D03*
X-198301Y129679D03*
X-203966Y-84556D03*
X-227834Y-93244D03*
X-25399Y-241455D03*
X-1Y-241145D03*
X194835Y-136556D03*
X211565Y-117444D03*
D13*
X121768Y120410D03*
X183032Y158990D03*
X-36196Y191005D03*
X36196Y189995D03*
X-175393Y72166D03*
X-133247Y131034D03*
X-151282Y-102358D03*
X-204318Y-151642D03*
X23499Y-178053D03*
X-48899Y-177547D03*
X174359Y-73168D03*
X134609Y-133681D03*
D14*
G36*
X245079Y78656D02*
X251951Y61300D01*
X234595Y54428D01*
X227723Y71784D01*
X245079Y78656D01*
G37*
D15*
X215900Y127000D03*
D16*
X45240Y-239772D02*
X0Y-239772D01*
X45240Y-239772D02*
X167388Y-117624D01*
X210366Y-117624D01*
X0Y-239772D02*
X-1Y-241145D01*
X210366Y-117624D02*
X211565Y-117444D01*
X2262Y76908D02*
X2262Y133458D01*
X2262Y239772D01*
X2262Y76908D02*
X54288Y24882D01*
X2262Y239772D02*
X20Y242009D01*
X54288Y24882D02*
X55433Y22961D01*
X167388Y-88218D02*
X167388Y-117624D01*
X95883Y-16713D02*
X95883Y-6754D01*
X95883Y-16713D02*
X167388Y-88218D01*
X66168Y22961D02*
X55433Y22961D01*
X66168Y22961D02*
X95883Y-6754D01*
X2262Y133458D02*
X-109070Y133458D01*
X-116476Y140864D01*
X-194522Y133458D02*
X-198301Y129679D01*
X-137319Y140864D02*
X-116476Y140864D01*
X-144725Y133458D02*
X-194522Y133458D01*
X-144725Y133458D02*
X-137319Y140864D01*
X215900Y127000D02*
X215900Y39630D01*
X193539Y-53988D01*
X174359Y-73168D01*
M02*
