G04 EAGLE Gerber RS-274X export*
G75*
%MOMM*%
%FSLAX34Y34*%
%LPD*%
%INSilkscreen Bottom*%
%IPPOS*%
%AMOC8*
5,1,8,0,0,1.08239X$1,22.5*%
G01*
G04 Define Apertures*
G36*
X13042Y-49825D02*
X7872Y-49825D01*
X7379Y-49812D01*
X6900Y-49772D01*
X6437Y-49705D01*
X5988Y-49612D01*
X5554Y-49492D01*
X5134Y-49345D01*
X4730Y-49172D01*
X4340Y-48972D01*
X3968Y-48747D01*
X3618Y-48498D01*
X3290Y-48226D01*
X2983Y-47930D01*
X2699Y-47611D01*
X2436Y-47269D01*
X2194Y-46903D01*
X1975Y-46514D01*
X1780Y-46104D01*
X1610Y-45678D01*
X1467Y-45236D01*
X1350Y-44776D01*
X1258Y-44300D01*
X1193Y-43807D01*
X1154Y-43297D01*
X1141Y-42771D01*
X1149Y-42371D01*
X1171Y-41982D01*
X1208Y-41605D01*
X1260Y-41240D01*
X1327Y-40886D01*
X1409Y-40544D01*
X1506Y-40214D01*
X1618Y-39895D01*
X1745Y-39588D01*
X1887Y-39292D01*
X2043Y-39008D01*
X2215Y-38736D01*
X2401Y-38475D01*
X2602Y-38226D01*
X2818Y-37988D01*
X3049Y-37762D01*
X3294Y-37549D01*
X3552Y-37349D01*
X3821Y-37164D01*
X4104Y-36992D01*
X4399Y-36833D01*
X4706Y-36689D01*
X5026Y-36558D01*
X5359Y-36441D01*
X5704Y-36338D01*
X6061Y-36249D01*
X6432Y-36173D01*
X6814Y-36111D01*
X7209Y-36063D01*
X7617Y-36028D01*
X8037Y-36008D01*
X8470Y-36001D01*
X13042Y-36001D01*
X13042Y-49825D01*
G37*
%LPC*%
G36*
X11168Y-48324D02*
X11168Y-37502D01*
X8509Y-37502D01*
X7862Y-37523D01*
X7254Y-37586D01*
X6685Y-37692D01*
X6156Y-37839D01*
X5666Y-38029D01*
X5216Y-38261D01*
X4805Y-38535D01*
X4433Y-38851D01*
X4103Y-39208D01*
X3817Y-39602D01*
X3575Y-40035D01*
X3377Y-40506D01*
X3223Y-41015D01*
X3113Y-41562D01*
X3047Y-42147D01*
X3025Y-42771D01*
X3035Y-43191D01*
X3064Y-43596D01*
X3112Y-43988D01*
X3179Y-44365D01*
X3266Y-44729D01*
X3373Y-45078D01*
X3498Y-45413D01*
X3643Y-45734D01*
X3806Y-46039D01*
X3985Y-46325D01*
X4182Y-46593D01*
X4395Y-46843D01*
X4625Y-47074D01*
X4871Y-47287D01*
X5134Y-47481D01*
X5414Y-47657D01*
X5708Y-47813D01*
X6013Y-47949D01*
X6330Y-48063D01*
X6659Y-48157D01*
X6999Y-48230D01*
X7350Y-48282D01*
X7713Y-48314D01*
X8088Y-48324D01*
X11168Y-48324D01*
G37*
%LPD*%
G36*
X56058Y-71161D02*
X50887Y-71161D01*
X50394Y-71148D01*
X49916Y-71108D01*
X49452Y-71041D01*
X49004Y-70948D01*
X48569Y-70828D01*
X48150Y-70681D01*
X47745Y-70508D01*
X47355Y-70308D01*
X46983Y-70083D01*
X46634Y-69834D01*
X46305Y-69562D01*
X45999Y-69266D01*
X45714Y-68947D01*
X45451Y-68605D01*
X45210Y-68239D01*
X44991Y-67850D01*
X44795Y-67440D01*
X44626Y-67014D01*
X44483Y-66572D01*
X44365Y-66112D01*
X44274Y-65636D01*
X44209Y-65143D01*
X44170Y-64633D01*
X44157Y-64107D01*
X44164Y-63707D01*
X44187Y-63318D01*
X44224Y-62941D01*
X44276Y-62576D01*
X44343Y-62222D01*
X44425Y-61880D01*
X44522Y-61550D01*
X44634Y-61231D01*
X44761Y-60924D01*
X44902Y-60628D01*
X45059Y-60344D01*
X45230Y-60072D01*
X45417Y-59811D01*
X45618Y-59562D01*
X45834Y-59324D01*
X46065Y-59098D01*
X46310Y-58885D01*
X46567Y-58685D01*
X46837Y-58500D01*
X47119Y-58328D01*
X47414Y-58169D01*
X47722Y-58025D01*
X48042Y-57894D01*
X48374Y-57777D01*
X48719Y-57674D01*
X49077Y-57585D01*
X49447Y-57509D01*
X49830Y-57447D01*
X50225Y-57399D01*
X50633Y-57364D01*
X51053Y-57344D01*
X51486Y-57337D01*
X56058Y-57337D01*
X56058Y-71161D01*
G37*
%LPC*%
G36*
X54184Y-69660D02*
X54184Y-58838D01*
X51525Y-58838D01*
X50878Y-58859D01*
X50270Y-58922D01*
X49701Y-59028D01*
X49172Y-59175D01*
X48682Y-59365D01*
X48231Y-59597D01*
X47820Y-59871D01*
X47448Y-60187D01*
X47118Y-60544D01*
X46832Y-60938D01*
X46591Y-61371D01*
X46393Y-61842D01*
X46239Y-62351D01*
X46129Y-62898D01*
X46063Y-63483D01*
X46041Y-64107D01*
X46050Y-64527D01*
X46079Y-64932D01*
X46127Y-65324D01*
X46195Y-65701D01*
X46282Y-66065D01*
X46388Y-66414D01*
X46514Y-66749D01*
X46659Y-67070D01*
X46822Y-67375D01*
X47001Y-67661D01*
X47197Y-67929D01*
X47410Y-68179D01*
X47640Y-68410D01*
X47887Y-68623D01*
X48150Y-68817D01*
X48430Y-68993D01*
X48724Y-69149D01*
X49029Y-69285D01*
X49346Y-69399D01*
X49674Y-69493D01*
X50014Y-69566D01*
X50366Y-69618D01*
X50729Y-69650D01*
X51103Y-69660D01*
X54184Y-69660D01*
G37*
%LPD*%
G36*
X-7051Y-49825D02*
X-12664Y-49825D01*
X-13246Y-49809D01*
X-13795Y-49761D01*
X-14311Y-49681D01*
X-14795Y-49569D01*
X-15246Y-49425D01*
X-15664Y-49248D01*
X-16049Y-49040D01*
X-16402Y-48800D01*
X-16717Y-48531D01*
X-16990Y-48236D01*
X-17221Y-47916D01*
X-17410Y-47570D01*
X-17557Y-47198D01*
X-17662Y-46801D01*
X-17725Y-46378D01*
X-17746Y-45930D01*
X-17732Y-45592D01*
X-17690Y-45268D01*
X-17620Y-44959D01*
X-17523Y-44666D01*
X-17397Y-44387D01*
X-17244Y-44123D01*
X-17062Y-43873D01*
X-16853Y-43639D01*
X-16726Y-43523D01*
X-16618Y-43423D01*
X-16359Y-43230D01*
X-16077Y-43058D01*
X-15771Y-42909D01*
X-15442Y-42783D01*
X-15089Y-42678D01*
X-14712Y-42596D01*
X-14312Y-42535D01*
X-14617Y-42456D01*
X-14904Y-42359D01*
X-15174Y-42245D01*
X-15425Y-42113D01*
X-15659Y-41965D01*
X-15876Y-41799D01*
X-15963Y-41719D01*
X-16074Y-41617D01*
X-16255Y-41417D01*
X-16416Y-41202D01*
X-16555Y-40975D01*
X-16673Y-40736D01*
X-16770Y-40485D01*
X-16845Y-40221D01*
X-16898Y-39945D01*
X-16931Y-39657D01*
X-16941Y-39356D01*
X-16922Y-38950D01*
X-16865Y-38570D01*
X-16770Y-38216D01*
X-16637Y-37888D01*
X-16466Y-37587D01*
X-16257Y-37312D01*
X-16010Y-37063D01*
X-15725Y-36840D01*
X-15402Y-36643D01*
X-15040Y-36473D01*
X-14641Y-36329D01*
X-14204Y-36211D01*
X-13729Y-36119D01*
X-13215Y-36053D01*
X-12664Y-36014D01*
X-12075Y-36001D01*
X-7051Y-36001D01*
X-7051Y-49825D01*
G37*
%LPC*%
G36*
X-8925Y-48324D02*
X-8925Y-43340D01*
X-12418Y-43340D01*
X-12834Y-43349D01*
X-13223Y-43378D01*
X-13585Y-43426D01*
X-13921Y-43493D01*
X-14229Y-43578D01*
X-14511Y-43683D01*
X-14766Y-43807D01*
X-14994Y-43951D01*
X-15195Y-44113D01*
X-15369Y-44294D01*
X-15517Y-44495D01*
X-15638Y-44714D01*
X-15732Y-44953D01*
X-15799Y-45210D01*
X-15839Y-45487D01*
X-15852Y-45783D01*
X-15840Y-46090D01*
X-15803Y-46377D01*
X-15742Y-46644D01*
X-15656Y-46892D01*
X-15546Y-47120D01*
X-15411Y-47328D01*
X-15251Y-47517D01*
X-15067Y-47686D01*
X-14857Y-47836D01*
X-14617Y-47965D01*
X-14348Y-48075D01*
X-14049Y-48165D01*
X-13722Y-48234D01*
X-13366Y-48284D01*
X-12980Y-48314D01*
X-12565Y-48324D01*
X-8925Y-48324D01*
G37*
G36*
X-8925Y-41878D02*
X-8925Y-37502D01*
X-12075Y-37502D01*
X-12427Y-37510D01*
X-12758Y-37532D01*
X-13067Y-37570D01*
X-13355Y-37622D01*
X-13622Y-37690D01*
X-13867Y-37773D01*
X-14090Y-37870D01*
X-14292Y-37983D01*
X-14472Y-38113D01*
X-14627Y-38263D01*
X-14759Y-38433D01*
X-14866Y-38623D01*
X-14950Y-38833D01*
X-15010Y-39063D01*
X-15046Y-39312D01*
X-15058Y-39582D01*
X-15046Y-39865D01*
X-15011Y-40128D01*
X-14953Y-40373D01*
X-14872Y-40599D01*
X-14768Y-40806D01*
X-14641Y-40994D01*
X-14490Y-41163D01*
X-14317Y-41314D01*
X-14120Y-41446D01*
X-13899Y-41561D01*
X-13654Y-41658D01*
X-13386Y-41737D01*
X-13094Y-41799D01*
X-12778Y-41843D01*
X-12438Y-41869D01*
X-12075Y-41878D01*
X-8925Y-41878D01*
G37*
%LPD*%
G36*
X85120Y-71161D02*
X79508Y-71161D01*
X78926Y-71145D01*
X78377Y-71097D01*
X77860Y-71017D01*
X77377Y-70905D01*
X76926Y-70761D01*
X76508Y-70584D01*
X76123Y-70376D01*
X75770Y-70136D01*
X75455Y-69867D01*
X75182Y-69572D01*
X74951Y-69252D01*
X74762Y-68906D01*
X74615Y-68534D01*
X74510Y-68137D01*
X74447Y-67714D01*
X74426Y-67266D01*
X74440Y-66928D01*
X74482Y-66604D01*
X74552Y-66295D01*
X74649Y-66002D01*
X74775Y-65723D01*
X74928Y-65459D01*
X75110Y-65209D01*
X75319Y-64975D01*
X75445Y-64859D01*
X75554Y-64759D01*
X75813Y-64566D01*
X76095Y-64394D01*
X76401Y-64245D01*
X76730Y-64119D01*
X77083Y-64014D01*
X77460Y-63932D01*
X77860Y-63871D01*
X77555Y-63792D01*
X77268Y-63695D01*
X76998Y-63581D01*
X76746Y-63449D01*
X76512Y-63301D01*
X76296Y-63135D01*
X76209Y-63055D01*
X76098Y-62953D01*
X75917Y-62753D01*
X75756Y-62538D01*
X75617Y-62311D01*
X75499Y-62072D01*
X75402Y-61821D01*
X75327Y-61557D01*
X75273Y-61281D01*
X75241Y-60993D01*
X75231Y-60692D01*
X75250Y-60286D01*
X75307Y-59906D01*
X75402Y-59552D01*
X75535Y-59224D01*
X75706Y-58923D01*
X75915Y-58648D01*
X76162Y-58399D01*
X76447Y-58176D01*
X76770Y-57979D01*
X77132Y-57809D01*
X77531Y-57665D01*
X77968Y-57547D01*
X78443Y-57455D01*
X78956Y-57389D01*
X79508Y-57350D01*
X80097Y-57337D01*
X85120Y-57337D01*
X85120Y-71161D01*
G37*
%LPC*%
G36*
X83246Y-69660D02*
X83246Y-64676D01*
X79754Y-64676D01*
X79338Y-64685D01*
X78949Y-64714D01*
X78587Y-64762D01*
X78251Y-64829D01*
X77943Y-64914D01*
X77661Y-65019D01*
X77406Y-65143D01*
X77178Y-65287D01*
X76977Y-65449D01*
X76803Y-65630D01*
X76655Y-65831D01*
X76534Y-66050D01*
X76440Y-66289D01*
X76373Y-66546D01*
X76333Y-66823D01*
X76320Y-67119D01*
X76332Y-67426D01*
X76369Y-67713D01*
X76430Y-67980D01*
X76516Y-68228D01*
X76626Y-68456D01*
X76761Y-68664D01*
X76921Y-68853D01*
X77105Y-69022D01*
X77315Y-69172D01*
X77555Y-69301D01*
X77824Y-69411D01*
X78122Y-69501D01*
X78450Y-69570D01*
X78806Y-69620D01*
X79192Y-69650D01*
X79606Y-69660D01*
X83246Y-69660D01*
G37*
G36*
X83246Y-63214D02*
X83246Y-58838D01*
X80097Y-58838D01*
X79745Y-58846D01*
X79414Y-58868D01*
X79105Y-58906D01*
X78817Y-58958D01*
X78550Y-59026D01*
X78305Y-59109D01*
X78082Y-59206D01*
X77880Y-59319D01*
X77700Y-59449D01*
X77545Y-59599D01*
X77413Y-59769D01*
X77306Y-59959D01*
X77222Y-60169D01*
X77162Y-60399D01*
X77126Y-60648D01*
X77114Y-60918D01*
X77126Y-61201D01*
X77161Y-61464D01*
X77219Y-61709D01*
X77300Y-61935D01*
X77404Y-62142D01*
X77531Y-62330D01*
X77682Y-62499D01*
X77855Y-62650D01*
X78052Y-62782D01*
X78273Y-62897D01*
X78518Y-62994D01*
X78786Y-63073D01*
X79078Y-63135D01*
X79394Y-63179D01*
X79734Y-63205D01*
X80097Y-63214D01*
X83246Y-63214D01*
G37*
%LPD*%
G36*
X-100404Y-50021D02*
X-100697Y-50014D01*
X-100982Y-49993D01*
X-101257Y-49957D01*
X-101523Y-49907D01*
X-101780Y-49843D01*
X-102028Y-49765D01*
X-102267Y-49672D01*
X-102497Y-49565D01*
X-102718Y-49444D01*
X-102930Y-49309D01*
X-103132Y-49159D01*
X-103326Y-48995D01*
X-103686Y-48624D01*
X-104009Y-48197D01*
X-104296Y-47715D01*
X-104544Y-47182D01*
X-104754Y-46597D01*
X-104926Y-45962D01*
X-105059Y-45275D01*
X-105155Y-44537D01*
X-105212Y-43748D01*
X-105231Y-42908D01*
X-105213Y-42055D01*
X-105158Y-41255D01*
X-105067Y-40509D01*
X-104940Y-39818D01*
X-104777Y-39180D01*
X-104577Y-38596D01*
X-104341Y-38066D01*
X-104068Y-37590D01*
X-103758Y-37170D01*
X-103587Y-36980D01*
X-103407Y-36805D01*
X-103217Y-36644D01*
X-103016Y-36496D01*
X-102806Y-36363D01*
X-102585Y-36244D01*
X-102355Y-36139D01*
X-102115Y-36047D01*
X-101864Y-35970D01*
X-101604Y-35907D01*
X-101334Y-35858D01*
X-101053Y-35823D01*
X-100763Y-35802D01*
X-100463Y-35795D01*
X-100154Y-35802D01*
X-99856Y-35823D01*
X-99568Y-35857D01*
X-99291Y-35906D01*
X-99024Y-35968D01*
X-98768Y-36045D01*
X-98523Y-36135D01*
X-98288Y-36239D01*
X-98064Y-36357D01*
X-97850Y-36489D01*
X-97647Y-36634D01*
X-97454Y-36794D01*
X-97272Y-36967D01*
X-97100Y-37155D01*
X-96939Y-37356D01*
X-96788Y-37571D01*
X-96516Y-38043D01*
X-96280Y-38570D01*
X-96080Y-39154D01*
X-95916Y-39793D01*
X-95789Y-40488D01*
X-95698Y-41239D01*
X-95644Y-42046D01*
X-95626Y-42908D01*
X-95644Y-43753D01*
X-95700Y-44545D01*
X-95794Y-45286D01*
X-95925Y-45974D01*
X-96093Y-46610D01*
X-96299Y-47195D01*
X-96542Y-47726D01*
X-96823Y-48206D01*
X-97140Y-48632D01*
X-97495Y-49000D01*
X-97687Y-49164D01*
X-97887Y-49312D01*
X-98097Y-49447D01*
X-98316Y-49568D01*
X-98545Y-49674D01*
X-98783Y-49766D01*
X-99030Y-49844D01*
X-99286Y-49908D01*
X-99551Y-49958D01*
X-99826Y-49993D01*
X-100110Y-50014D01*
X-100404Y-50021D01*
G37*
%LPC*%
G36*
X-100423Y-48579D02*
X-100044Y-48558D01*
X-99691Y-48494D01*
X-99365Y-48387D01*
X-99066Y-48238D01*
X-98793Y-48046D01*
X-98546Y-47812D01*
X-98326Y-47535D01*
X-98132Y-47215D01*
X-97963Y-46850D01*
X-97817Y-46435D01*
X-97693Y-45970D01*
X-97591Y-45457D01*
X-97513Y-44894D01*
X-97456Y-44281D01*
X-97422Y-43619D01*
X-97411Y-42908D01*
X-97422Y-42177D01*
X-97456Y-41499D01*
X-97511Y-40874D01*
X-97589Y-40303D01*
X-97689Y-39785D01*
X-97811Y-39321D01*
X-97956Y-38910D01*
X-98123Y-38552D01*
X-98315Y-38241D01*
X-98536Y-37972D01*
X-98785Y-37745D01*
X-99063Y-37559D01*
X-99370Y-37414D01*
X-99706Y-37310D01*
X-100070Y-37248D01*
X-100463Y-37227D01*
X-100846Y-37248D01*
X-101201Y-37311D01*
X-101528Y-37416D01*
X-101828Y-37563D01*
X-102099Y-37752D01*
X-102342Y-37983D01*
X-102557Y-38257D01*
X-102744Y-38572D01*
X-102906Y-38933D01*
X-103046Y-39347D01*
X-103165Y-39811D01*
X-103262Y-40328D01*
X-103338Y-40896D01*
X-103392Y-41515D01*
X-103425Y-42186D01*
X-103435Y-42908D01*
X-103424Y-43606D01*
X-103390Y-44257D01*
X-103333Y-44862D01*
X-103254Y-45420D01*
X-103152Y-45931D01*
X-103027Y-46396D01*
X-102880Y-46814D01*
X-102709Y-47186D01*
X-102515Y-47512D01*
X-102294Y-47795D01*
X-102048Y-48035D01*
X-101775Y-48231D01*
X-101476Y-48383D01*
X-101151Y-48492D01*
X-100800Y-48557D01*
X-100423Y-48579D01*
G37*
%LPD*%
G36*
X-33357Y-28685D02*
X-33650Y-28678D01*
X-33935Y-28657D01*
X-34210Y-28621D01*
X-34476Y-28571D01*
X-34733Y-28507D01*
X-34981Y-28429D01*
X-35220Y-28336D01*
X-35450Y-28229D01*
X-35671Y-28108D01*
X-35883Y-27973D01*
X-36086Y-27823D01*
X-36279Y-27659D01*
X-36639Y-27288D01*
X-36963Y-26861D01*
X-37249Y-26379D01*
X-37497Y-25846D01*
X-37707Y-25261D01*
X-37879Y-24626D01*
X-38012Y-23939D01*
X-38108Y-23201D01*
X-38165Y-22412D01*
X-38184Y-21572D01*
X-38166Y-20719D01*
X-38111Y-19919D01*
X-38021Y-19173D01*
X-37893Y-18482D01*
X-37730Y-17844D01*
X-37530Y-17260D01*
X-37294Y-16730D01*
X-37021Y-16254D01*
X-36711Y-15834D01*
X-36540Y-15644D01*
X-36360Y-15469D01*
X-36170Y-15308D01*
X-35969Y-15160D01*
X-35759Y-15027D01*
X-35539Y-14908D01*
X-35308Y-14803D01*
X-35068Y-14711D01*
X-34818Y-14634D01*
X-34557Y-14571D01*
X-34287Y-14522D01*
X-34006Y-14487D01*
X-33716Y-14466D01*
X-33416Y-14459D01*
X-33107Y-14466D01*
X-32809Y-14487D01*
X-32521Y-14521D01*
X-32244Y-14570D01*
X-31978Y-14632D01*
X-31722Y-14709D01*
X-31476Y-14799D01*
X-31241Y-14903D01*
X-31017Y-15021D01*
X-30803Y-15153D01*
X-30600Y-15298D01*
X-30407Y-15458D01*
X-30225Y-15631D01*
X-30053Y-15819D01*
X-29892Y-16020D01*
X-29741Y-16235D01*
X-29469Y-16707D01*
X-29233Y-17234D01*
X-29033Y-17818D01*
X-28869Y-18457D01*
X-28742Y-19152D01*
X-28651Y-19903D01*
X-28597Y-20710D01*
X-28579Y-21572D01*
X-28597Y-22417D01*
X-28653Y-23209D01*
X-28747Y-23950D01*
X-28878Y-24638D01*
X-29046Y-25274D01*
X-29252Y-25859D01*
X-29495Y-26390D01*
X-29776Y-26870D01*
X-30093Y-27296D01*
X-30448Y-27664D01*
X-30640Y-27828D01*
X-30840Y-27976D01*
X-31050Y-28111D01*
X-31269Y-28232D01*
X-31498Y-28338D01*
X-31736Y-28430D01*
X-31983Y-28508D01*
X-32239Y-28572D01*
X-32504Y-28622D01*
X-32779Y-28657D01*
X-33063Y-28678D01*
X-33357Y-28685D01*
G37*
%LPC*%
G36*
X-33376Y-27243D02*
X-32997Y-27222D01*
X-32645Y-27158D01*
X-32318Y-27051D01*
X-32019Y-26902D01*
X-31746Y-26710D01*
X-31499Y-26476D01*
X-31279Y-26199D01*
X-31085Y-25879D01*
X-30916Y-25514D01*
X-30770Y-25099D01*
X-30646Y-24634D01*
X-30545Y-24121D01*
X-30466Y-23558D01*
X-30409Y-22945D01*
X-30376Y-22283D01*
X-30364Y-21572D01*
X-30375Y-20841D01*
X-30409Y-20163D01*
X-30464Y-19538D01*
X-30542Y-18967D01*
X-30642Y-18449D01*
X-30764Y-17985D01*
X-30909Y-17574D01*
X-31076Y-17216D01*
X-31268Y-16905D01*
X-31489Y-16636D01*
X-31738Y-16409D01*
X-32016Y-16223D01*
X-32323Y-16078D01*
X-32659Y-15974D01*
X-33023Y-15912D01*
X-33416Y-15891D01*
X-33799Y-15912D01*
X-34154Y-15975D01*
X-34482Y-16080D01*
X-34781Y-16227D01*
X-35052Y-16416D01*
X-35295Y-16647D01*
X-35510Y-16921D01*
X-35697Y-17236D01*
X-35859Y-17597D01*
X-35999Y-18011D01*
X-36118Y-18475D01*
X-36216Y-18992D01*
X-36291Y-19560D01*
X-36345Y-20179D01*
X-36378Y-20850D01*
X-36389Y-21572D01*
X-36377Y-22270D01*
X-36343Y-22921D01*
X-36286Y-23526D01*
X-36207Y-24084D01*
X-36105Y-24595D01*
X-35980Y-25060D01*
X-35833Y-25478D01*
X-35662Y-25850D01*
X-35468Y-26176D01*
X-35247Y-26459D01*
X-35001Y-26699D01*
X-34728Y-26895D01*
X-34429Y-27047D01*
X-34104Y-27156D01*
X-33753Y-27221D01*
X-33376Y-27243D01*
G37*
%LPD*%
G36*
X-76202Y-75331D02*
X-76740Y-75314D01*
X-77243Y-75261D01*
X-77712Y-75174D01*
X-78146Y-75051D01*
X-78545Y-74894D01*
X-78910Y-74702D01*
X-79240Y-74475D01*
X-79535Y-74213D01*
X-79795Y-73915D01*
X-80021Y-73583D01*
X-80212Y-73216D01*
X-80368Y-72814D01*
X-80490Y-72377D01*
X-80577Y-71906D01*
X-80629Y-71399D01*
X-80646Y-70857D01*
X-80646Y-62743D01*
X-80661Y-61360D01*
X-80679Y-60881D01*
X-80705Y-60545D01*
X-79027Y-60545D01*
X-79008Y-60621D01*
X-78988Y-60778D01*
X-78949Y-61340D01*
X-78910Y-62360D01*
X-78890Y-62360D01*
X-78771Y-62129D01*
X-78641Y-61912D01*
X-78498Y-61708D01*
X-78344Y-61518D01*
X-78178Y-61341D01*
X-78001Y-61178D01*
X-77811Y-61029D01*
X-77610Y-60894D01*
X-77398Y-60773D01*
X-77176Y-60668D01*
X-76946Y-60580D01*
X-76706Y-60507D01*
X-76456Y-60451D01*
X-76198Y-60411D01*
X-75930Y-60387D01*
X-75652Y-60378D01*
X-75165Y-60399D01*
X-74711Y-60462D01*
X-74288Y-60567D01*
X-73897Y-60713D01*
X-73539Y-60902D01*
X-73212Y-61132D01*
X-72917Y-61404D01*
X-72655Y-61718D01*
X-72424Y-62076D01*
X-72223Y-62480D01*
X-72054Y-62930D01*
X-71915Y-63426D01*
X-71807Y-63969D01*
X-71730Y-64557D01*
X-71684Y-65192D01*
X-71669Y-65873D01*
X-71683Y-66544D01*
X-71726Y-67169D01*
X-71798Y-67747D01*
X-71898Y-68279D01*
X-72027Y-68765D01*
X-72185Y-69204D01*
X-72371Y-69598D01*
X-72586Y-69945D01*
X-72832Y-70248D01*
X-73110Y-70511D01*
X-73420Y-70734D01*
X-73762Y-70916D01*
X-74137Y-71058D01*
X-74544Y-71159D01*
X-74984Y-71219D01*
X-75456Y-71240D01*
X-75743Y-71232D01*
X-76021Y-71207D01*
X-76290Y-71167D01*
X-76550Y-71111D01*
X-76800Y-71038D01*
X-77042Y-70950D01*
X-77274Y-70845D01*
X-77497Y-70725D01*
X-77511Y-70716D01*
X-77709Y-70588D01*
X-77910Y-70435D01*
X-78099Y-70267D01*
X-78277Y-70083D01*
X-78443Y-69883D01*
X-78597Y-69668D01*
X-78739Y-69436D01*
X-78870Y-69189D01*
X-78890Y-69189D01*
X-78890Y-70896D01*
X-78880Y-71271D01*
X-78849Y-71621D01*
X-78797Y-71947D01*
X-78725Y-72248D01*
X-78632Y-72526D01*
X-78519Y-72780D01*
X-78385Y-73009D01*
X-78230Y-73214D01*
X-78055Y-73395D01*
X-77859Y-73552D01*
X-77643Y-73685D01*
X-77405Y-73794D01*
X-77148Y-73878D01*
X-76869Y-73939D01*
X-76587Y-73973D01*
X-76570Y-73975D01*
X-76251Y-73987D01*
X-76011Y-73981D01*
X-75784Y-73962D01*
X-75568Y-73931D01*
X-75364Y-73888D01*
X-75172Y-73832D01*
X-74991Y-73763D01*
X-74823Y-73683D01*
X-74666Y-73590D01*
X-74522Y-73485D01*
X-74391Y-73370D01*
X-74274Y-73244D01*
X-74169Y-73108D01*
X-74079Y-72961D01*
X-74001Y-72803D01*
X-73937Y-72635D01*
X-73886Y-72456D01*
X-72110Y-72711D01*
X-72195Y-73016D01*
X-72303Y-73303D01*
X-72435Y-73573D01*
X-72589Y-73824D01*
X-72766Y-74057D01*
X-72966Y-74272D01*
X-73189Y-74470D01*
X-73435Y-74649D01*
X-73703Y-74809D01*
X-73994Y-74947D01*
X-74307Y-75065D01*
X-74642Y-75161D01*
X-74999Y-75235D01*
X-75377Y-75288D01*
X-75779Y-75320D01*
X-76202Y-75331D01*
G37*
%LPC*%
G36*
X-76054Y-69935D02*
X-75717Y-69920D01*
X-75404Y-69875D01*
X-75118Y-69801D01*
X-74857Y-69697D01*
X-74623Y-69563D01*
X-74414Y-69399D01*
X-74230Y-69206D01*
X-74073Y-68983D01*
X-73937Y-68726D01*
X-73819Y-68431D01*
X-73720Y-68097D01*
X-73638Y-67725D01*
X-73575Y-67314D01*
X-73530Y-66866D01*
X-73503Y-66379D01*
X-73494Y-65853D01*
X-73503Y-65323D01*
X-73532Y-64830D01*
X-73581Y-64376D01*
X-73648Y-63960D01*
X-73735Y-63581D01*
X-73841Y-63241D01*
X-73967Y-62939D01*
X-74112Y-62674D01*
X-74278Y-62444D01*
X-74467Y-62245D01*
X-74679Y-62076D01*
X-74914Y-61939D01*
X-75172Y-61831D01*
X-75453Y-61755D01*
X-75757Y-61709D01*
X-76084Y-61693D01*
X-76285Y-61701D01*
X-76480Y-61724D01*
X-76671Y-61763D01*
X-76855Y-61817D01*
X-77035Y-61887D01*
X-77209Y-61972D01*
X-77541Y-62189D01*
X-77844Y-62464D01*
X-78111Y-62795D01*
X-78342Y-63180D01*
X-78537Y-63621D01*
X-78691Y-64112D01*
X-78802Y-64648D01*
X-78868Y-65228D01*
X-78890Y-65853D01*
X-78868Y-66464D01*
X-78802Y-67032D01*
X-78691Y-67556D01*
X-78537Y-68036D01*
X-78342Y-68468D01*
X-78110Y-68847D01*
X-78005Y-68975D01*
X-77841Y-69172D01*
X-77536Y-69444D01*
X-77201Y-69659D01*
X-77024Y-69743D01*
X-76842Y-69812D01*
X-76654Y-69866D01*
X-76460Y-69904D01*
X-76260Y-69927D01*
X-76054Y-69935D01*
G37*
%LPD*%
G36*
X10009Y-32659D02*
X8243Y-32659D01*
X8243Y-28509D01*
X8252Y-27297D01*
X8265Y-26975D01*
X8282Y-26841D01*
X8233Y-26841D01*
X8121Y-27064D01*
X7997Y-27273D01*
X7860Y-27468D01*
X7710Y-27648D01*
X7548Y-27814D01*
X7374Y-27965D01*
X7186Y-28102D01*
X6987Y-28224D01*
X6774Y-28332D01*
X6549Y-28426D01*
X6312Y-28505D01*
X6062Y-28570D01*
X5799Y-28621D01*
X5524Y-28657D01*
X5236Y-28678D01*
X4936Y-28685D01*
X4463Y-28664D01*
X4021Y-28599D01*
X3609Y-28490D01*
X3228Y-28338D01*
X2877Y-28143D01*
X2556Y-27905D01*
X2267Y-27623D01*
X2007Y-27297D01*
X1779Y-26928D01*
X1580Y-26516D01*
X1412Y-26061D01*
X1275Y-25562D01*
X1168Y-25019D01*
X1092Y-24434D01*
X1046Y-23805D01*
X1031Y-23132D01*
X1046Y-22452D01*
X1092Y-21818D01*
X1168Y-21231D01*
X1274Y-20692D01*
X1411Y-20199D01*
X1577Y-19753D01*
X1775Y-19354D01*
X2002Y-19002D01*
X2261Y-18693D01*
X2550Y-18426D01*
X2870Y-18200D01*
X3222Y-18016D01*
X3604Y-17872D01*
X4017Y-17769D01*
X4461Y-17707D01*
X4936Y-17687D01*
X5245Y-17694D01*
X5538Y-17715D01*
X5816Y-17751D01*
X6079Y-17801D01*
X6327Y-17865D01*
X6559Y-17943D01*
X6775Y-18036D01*
X6977Y-18143D01*
X7166Y-18265D01*
X7345Y-18404D01*
X7515Y-18559D01*
X7676Y-18731D01*
X7827Y-18918D01*
X7968Y-19123D01*
X8100Y-19343D01*
X8223Y-19580D01*
X8262Y-19580D01*
X8287Y-18894D01*
X8331Y-18153D01*
X8360Y-17873D01*
X10067Y-17873D01*
X10042Y-18207D01*
X10023Y-18680D01*
X10009Y-20042D01*
X10009Y-32659D01*
G37*
%LPC*%
G36*
X5407Y-27381D02*
X5769Y-27365D01*
X6105Y-27319D01*
X6416Y-27241D01*
X6700Y-27133D01*
X6958Y-26993D01*
X7190Y-26823D01*
X7396Y-26622D01*
X7575Y-26390D01*
X7732Y-26125D01*
X7867Y-25825D01*
X7982Y-25492D01*
X8076Y-25124D01*
X8149Y-24722D01*
X8201Y-24285D01*
X8232Y-23814D01*
X8243Y-23309D01*
X8223Y-22593D01*
X8165Y-21949D01*
X8069Y-21374D01*
X7933Y-20871D01*
X7761Y-20433D01*
X7553Y-20058D01*
X7436Y-19893D01*
X7310Y-19744D01*
X7175Y-19610D01*
X7031Y-19492D01*
X6875Y-19389D01*
X6705Y-19299D01*
X6521Y-19223D01*
X6323Y-19161D01*
X6111Y-19113D01*
X5884Y-19078D01*
X5643Y-19058D01*
X5387Y-19051D01*
X5072Y-19066D01*
X4779Y-19110D01*
X4508Y-19184D01*
X4259Y-19289D01*
X4032Y-19422D01*
X3827Y-19586D01*
X3645Y-19779D01*
X3484Y-20002D01*
X3344Y-20260D01*
X3222Y-20557D01*
X3119Y-20894D01*
X3035Y-21270D01*
X2970Y-21686D01*
X2923Y-22142D01*
X2895Y-22637D01*
X2885Y-23171D01*
X2895Y-23720D01*
X2923Y-24228D01*
X2970Y-24694D01*
X3036Y-25120D01*
X3121Y-25505D01*
X3225Y-25849D01*
X3347Y-26152D01*
X3489Y-26414D01*
X3651Y-26641D01*
X3835Y-26837D01*
X4041Y-27003D01*
X4270Y-27139D01*
X4521Y-27245D01*
X4794Y-27320D01*
X5089Y-27365D01*
X5407Y-27381D01*
G37*
%LPD*%
G36*
X-52621Y-50021D02*
X-52914Y-50015D01*
X-53195Y-49994D01*
X-53464Y-49959D01*
X-53721Y-49911D01*
X-53965Y-49849D01*
X-54198Y-49773D01*
X-54419Y-49683D01*
X-54627Y-49580D01*
X-54824Y-49461D01*
X-55012Y-49323D01*
X-55189Y-49167D01*
X-55357Y-48994D01*
X-55514Y-48802D01*
X-55662Y-48592D01*
X-55799Y-48364D01*
X-55927Y-48118D01*
X-55966Y-48118D01*
X-55975Y-48569D01*
X-56001Y-49099D01*
X-56034Y-49565D01*
X-56064Y-49825D01*
X-57752Y-49825D01*
X-57726Y-49490D01*
X-57708Y-49013D01*
X-57693Y-47637D01*
X-57693Y-35265D01*
X-55927Y-35265D01*
X-55927Y-39670D01*
X-55947Y-40858D01*
X-55927Y-40858D01*
X-55799Y-40625D01*
X-55662Y-40409D01*
X-55515Y-40210D01*
X-55358Y-40026D01*
X-55191Y-39859D01*
X-55015Y-39708D01*
X-54828Y-39573D01*
X-54632Y-39455D01*
X-54425Y-39351D01*
X-54205Y-39261D01*
X-53972Y-39186D01*
X-53727Y-39123D01*
X-53469Y-39075D01*
X-53199Y-39041D01*
X-52916Y-39020D01*
X-52621Y-39013D01*
X-52148Y-39035D01*
X-51705Y-39100D01*
X-51294Y-39208D01*
X-50912Y-39360D01*
X-50561Y-39555D01*
X-50241Y-39794D01*
X-49951Y-40076D01*
X-49692Y-40401D01*
X-49463Y-40770D01*
X-49265Y-41182D01*
X-49097Y-41638D01*
X-48960Y-42137D01*
X-48853Y-42679D01*
X-48777Y-43265D01*
X-48731Y-43894D01*
X-48716Y-44566D01*
X-48730Y-45231D01*
X-48775Y-45853D01*
X-48849Y-46431D01*
X-48952Y-46965D01*
X-49085Y-47456D01*
X-49248Y-47903D01*
X-49441Y-48307D01*
X-49662Y-48667D01*
X-49916Y-48985D01*
X-50202Y-49260D01*
X-50522Y-49493D01*
X-50875Y-49683D01*
X-51262Y-49831D01*
X-51681Y-49937D01*
X-52134Y-50000D01*
X-52621Y-50021D01*
G37*
%LPC*%
G36*
X-53072Y-48658D02*
X-52752Y-48643D01*
X-52456Y-48598D01*
X-52182Y-48522D01*
X-51931Y-48417D01*
X-51704Y-48282D01*
X-51499Y-48117D01*
X-51317Y-47922D01*
X-51159Y-47696D01*
X-51021Y-47436D01*
X-50901Y-47136D01*
X-50800Y-46797D01*
X-50717Y-46418D01*
X-50653Y-46000D01*
X-50607Y-45542D01*
X-50579Y-45044D01*
X-50570Y-44507D01*
X-50579Y-43972D01*
X-50607Y-43476D01*
X-50653Y-43018D01*
X-50718Y-42598D01*
X-50802Y-42217D01*
X-50904Y-41874D01*
X-51024Y-41570D01*
X-51164Y-41304D01*
X-51324Y-41073D01*
X-51507Y-40873D01*
X-51713Y-40703D01*
X-51942Y-40564D01*
X-52195Y-40457D01*
X-52471Y-40380D01*
X-52770Y-40333D01*
X-53092Y-40318D01*
X-53449Y-40333D01*
X-53782Y-40379D01*
X-54090Y-40456D01*
X-54372Y-40563D01*
X-54629Y-40701D01*
X-54861Y-40870D01*
X-55068Y-41069D01*
X-55250Y-41299D01*
X-55409Y-41562D01*
X-55546Y-41860D01*
X-55663Y-42194D01*
X-55758Y-42562D01*
X-55832Y-42966D01*
X-55885Y-43405D01*
X-55916Y-43880D01*
X-55927Y-44390D01*
X-55916Y-44919D01*
X-55885Y-45412D01*
X-55832Y-45869D01*
X-55758Y-46291D01*
X-55663Y-46676D01*
X-55546Y-47026D01*
X-55409Y-47340D01*
X-55250Y-47618D01*
X-55228Y-47647D01*
X-55068Y-47861D01*
X-54860Y-48073D01*
X-54626Y-48251D01*
X-54367Y-48398D01*
X-54082Y-48511D01*
X-53771Y-48593D01*
X-53434Y-48641D01*
X-53072Y-48658D01*
G37*
%LPD*%
G36*
X-24353Y-50021D02*
X-24919Y-50000D01*
X-25451Y-49936D01*
X-25948Y-49830D01*
X-26411Y-49681D01*
X-26839Y-49489D01*
X-27232Y-49254D01*
X-27590Y-48977D01*
X-27914Y-48658D01*
X-28202Y-48294D01*
X-28451Y-47887D01*
X-28662Y-47435D01*
X-28834Y-46938D01*
X-28968Y-46397D01*
X-29064Y-45812D01*
X-29122Y-45182D01*
X-29141Y-44507D01*
X-29123Y-43827D01*
X-29069Y-43192D01*
X-28979Y-42603D01*
X-28854Y-42061D01*
X-28692Y-41564D01*
X-28495Y-41114D01*
X-28262Y-40710D01*
X-27993Y-40352D01*
X-27686Y-40038D01*
X-27339Y-39766D01*
X-26951Y-39536D01*
X-26524Y-39348D01*
X-26056Y-39201D01*
X-25548Y-39097D01*
X-25000Y-39034D01*
X-24412Y-39013D01*
X-23835Y-39035D01*
X-23296Y-39099D01*
X-22795Y-39206D01*
X-22330Y-39356D01*
X-21902Y-39550D01*
X-21512Y-39786D01*
X-21159Y-40065D01*
X-20843Y-40387D01*
X-20564Y-40752D01*
X-20322Y-41159D01*
X-20118Y-41610D01*
X-19951Y-42104D01*
X-19820Y-42640D01*
X-19728Y-43220D01*
X-19672Y-43842D01*
X-19653Y-44507D01*
X-19672Y-45157D01*
X-19727Y-45768D01*
X-19820Y-46339D01*
X-19950Y-46871D01*
X-20117Y-47363D01*
X-20321Y-47816D01*
X-20562Y-48230D01*
X-20840Y-48604D01*
X-21155Y-48936D01*
X-21505Y-49224D01*
X-21891Y-49468D01*
X-22312Y-49667D01*
X-22769Y-49822D01*
X-23261Y-49933D01*
X-23789Y-49999D01*
X-24353Y-50021D01*
G37*
%LPC*%
G36*
X-24333Y-48717D02*
X-23980Y-48700D01*
X-23651Y-48651D01*
X-23346Y-48568D01*
X-23066Y-48453D01*
X-22811Y-48305D01*
X-22579Y-48123D01*
X-22372Y-47909D01*
X-22189Y-47662D01*
X-22030Y-47382D01*
X-21891Y-47069D01*
X-21774Y-46724D01*
X-21678Y-46346D01*
X-21603Y-45935D01*
X-21550Y-45492D01*
X-21518Y-45016D01*
X-21508Y-44507D01*
X-21518Y-43986D01*
X-21551Y-43500D01*
X-21605Y-43049D01*
X-21680Y-42635D01*
X-21778Y-42256D01*
X-21897Y-41913D01*
X-22037Y-41605D01*
X-22199Y-41333D01*
X-22386Y-41095D01*
X-22599Y-40889D01*
X-22839Y-40715D01*
X-23106Y-40572D01*
X-23399Y-40461D01*
X-23720Y-40381D01*
X-24067Y-40334D01*
X-24441Y-40318D01*
X-24812Y-40334D01*
X-25156Y-40380D01*
X-25472Y-40458D01*
X-25760Y-40567D01*
X-26020Y-40707D01*
X-26252Y-40878D01*
X-26457Y-41080D01*
X-26634Y-41314D01*
X-26787Y-41582D01*
X-26919Y-41887D01*
X-27032Y-42230D01*
X-27123Y-42610D01*
X-27195Y-43028D01*
X-27246Y-43484D01*
X-27276Y-43977D01*
X-27286Y-44507D01*
X-27276Y-45032D01*
X-27244Y-45520D01*
X-27191Y-45972D01*
X-27116Y-46389D01*
X-27020Y-46769D01*
X-26903Y-47114D01*
X-26764Y-47423D01*
X-26605Y-47696D01*
X-26420Y-47935D01*
X-26207Y-48143D01*
X-25965Y-48318D01*
X-25696Y-48461D01*
X-25398Y-48573D01*
X-25071Y-48653D01*
X-24716Y-48701D01*
X-24333Y-48717D01*
G37*
%LPD*%
G36*
X5257Y-71357D02*
X4690Y-71336D01*
X4158Y-71272D01*
X3661Y-71166D01*
X3199Y-71017D01*
X2771Y-70825D01*
X2378Y-70590D01*
X2019Y-70313D01*
X1695Y-69994D01*
X1408Y-69630D01*
X1158Y-69223D01*
X948Y-68771D01*
X775Y-68274D01*
X641Y-67733D01*
X545Y-67148D01*
X488Y-66518D01*
X469Y-65843D01*
X487Y-65163D01*
X540Y-64528D01*
X630Y-63939D01*
X756Y-63397D01*
X917Y-62900D01*
X1114Y-62450D01*
X1348Y-62046D01*
X1617Y-61688D01*
X1924Y-61374D01*
X2271Y-61102D01*
X2658Y-60872D01*
X3086Y-60684D01*
X3554Y-60537D01*
X4061Y-60433D01*
X4609Y-60370D01*
X5198Y-60349D01*
X5774Y-60371D01*
X6313Y-60435D01*
X6815Y-60542D01*
X7280Y-60692D01*
X7707Y-60886D01*
X8097Y-61122D01*
X8451Y-61401D01*
X8767Y-61723D01*
X9045Y-62088D01*
X9287Y-62495D01*
X9492Y-62946D01*
X9659Y-63440D01*
X9789Y-63976D01*
X9882Y-64556D01*
X9938Y-65178D01*
X9956Y-65843D01*
X9938Y-66493D01*
X9882Y-67104D01*
X9789Y-67675D01*
X9659Y-68207D01*
X9493Y-68699D01*
X9288Y-69152D01*
X9047Y-69566D01*
X8769Y-69940D01*
X8454Y-70272D01*
X8104Y-70560D01*
X7719Y-70804D01*
X7297Y-71003D01*
X6841Y-71158D01*
X6348Y-71269D01*
X5820Y-71335D01*
X5257Y-71357D01*
G37*
%LPC*%
G36*
X5276Y-70053D02*
X5629Y-70036D01*
X5958Y-69987D01*
X6263Y-69904D01*
X6543Y-69789D01*
X6799Y-69641D01*
X7030Y-69459D01*
X7237Y-69245D01*
X7420Y-68998D01*
X7580Y-68718D01*
X7718Y-68405D01*
X7836Y-68060D01*
X7931Y-67682D01*
X8006Y-67271D01*
X8059Y-66828D01*
X8091Y-66352D01*
X8102Y-65843D01*
X8091Y-65322D01*
X8059Y-64836D01*
X8005Y-64385D01*
X7929Y-63971D01*
X7832Y-63592D01*
X7713Y-63249D01*
X7572Y-62941D01*
X7410Y-62669D01*
X7224Y-62431D01*
X7011Y-62225D01*
X6771Y-62051D01*
X6504Y-61908D01*
X6210Y-61797D01*
X5890Y-61717D01*
X5542Y-61670D01*
X5168Y-61654D01*
X4797Y-61670D01*
X4454Y-61716D01*
X4138Y-61794D01*
X3850Y-61903D01*
X3590Y-62043D01*
X3357Y-62214D01*
X3152Y-62416D01*
X2975Y-62650D01*
X2823Y-62918D01*
X2690Y-63223D01*
X2578Y-63566D01*
X2486Y-63946D01*
X2415Y-64364D01*
X2364Y-64820D01*
X2333Y-65313D01*
X2323Y-65843D01*
X2334Y-66368D01*
X2366Y-66856D01*
X2419Y-67308D01*
X2493Y-67725D01*
X2589Y-68105D01*
X2707Y-68450D01*
X2845Y-68759D01*
X3005Y-69032D01*
X3190Y-69271D01*
X3403Y-69479D01*
X3644Y-69654D01*
X3914Y-69797D01*
X4212Y-69909D01*
X4538Y-69989D01*
X4893Y-70037D01*
X5276Y-70053D01*
G37*
%LPD*%
G36*
X-90543Y-71357D02*
X-90858Y-71350D01*
X-91162Y-71326D01*
X-91453Y-71286D01*
X-91732Y-71231D01*
X-91998Y-71160D01*
X-92253Y-71073D01*
X-92496Y-70971D01*
X-92726Y-70852D01*
X-92947Y-70715D01*
X-93161Y-70555D01*
X-93368Y-70373D01*
X-93569Y-70169D01*
X-93762Y-69943D01*
X-93949Y-69694D01*
X-94128Y-69423D01*
X-94301Y-69130D01*
X-94360Y-69130D01*
X-94381Y-69396D01*
X-94413Y-69643D01*
X-94458Y-69872D01*
X-94516Y-70083D01*
X-94585Y-70276D01*
X-94666Y-70450D01*
X-94760Y-70606D01*
X-94865Y-70744D01*
X-94985Y-70865D01*
X-95122Y-70970D01*
X-95275Y-71058D01*
X-95445Y-71131D01*
X-95632Y-71187D01*
X-95836Y-71227D01*
X-96056Y-71251D01*
X-96293Y-71259D01*
X-96639Y-71249D01*
X-96982Y-71220D01*
X-97321Y-71171D01*
X-97656Y-71102D01*
X-97656Y-70003D01*
X-97350Y-70055D01*
X-97078Y-70072D01*
X-96939Y-70066D01*
X-96811Y-70047D01*
X-96696Y-70016D01*
X-96592Y-69973D01*
X-96500Y-69917D01*
X-96419Y-69849D01*
X-96350Y-69768D01*
X-96293Y-69675D01*
X-96203Y-69452D01*
X-96138Y-69181D01*
X-96099Y-68861D01*
X-96087Y-68493D01*
X-96087Y-63920D01*
X-96071Y-63499D01*
X-96023Y-63103D01*
X-95944Y-62733D01*
X-95834Y-62389D01*
X-95692Y-62070D01*
X-95518Y-61776D01*
X-95313Y-61509D01*
X-95076Y-61266D01*
X-94808Y-61051D01*
X-94509Y-60865D01*
X-94179Y-60707D01*
X-93818Y-60578D01*
X-93426Y-60478D01*
X-93003Y-60406D01*
X-92549Y-60363D01*
X-92064Y-60349D01*
X-91601Y-60360D01*
X-91165Y-60394D01*
X-90754Y-60450D01*
X-90370Y-60528D01*
X-90012Y-60629D01*
X-89681Y-60752D01*
X-89375Y-60897D01*
X-89096Y-61065D01*
X-88843Y-61256D01*
X-88616Y-61468D01*
X-88416Y-61703D01*
X-88241Y-61961D01*
X-88093Y-62240D01*
X-87971Y-62543D01*
X-87875Y-62867D01*
X-87806Y-63214D01*
X-89650Y-63381D01*
X-89684Y-63168D01*
X-89731Y-62969D01*
X-89792Y-62786D01*
X-89866Y-62618D01*
X-89954Y-62465D01*
X-90055Y-62327D01*
X-90170Y-62204D01*
X-90298Y-62095D01*
X-90443Y-62001D01*
X-90608Y-61919D01*
X-90794Y-61850D01*
X-90999Y-61794D01*
X-91225Y-61750D01*
X-91472Y-61718D01*
X-91738Y-61700D01*
X-92025Y-61693D01*
X-92309Y-61702D01*
X-92574Y-61728D01*
X-92819Y-61772D01*
X-93045Y-61833D01*
X-93251Y-61912D01*
X-93438Y-62008D01*
X-93604Y-62121D01*
X-93751Y-62252D01*
X-93880Y-62404D01*
X-93992Y-62578D01*
X-94086Y-62775D01*
X-94164Y-62996D01*
X-94224Y-63239D01*
X-94267Y-63505D01*
X-94292Y-63795D01*
X-94301Y-64107D01*
X-94301Y-64686D01*
X-91917Y-64725D01*
X-91334Y-64753D01*
X-90793Y-64806D01*
X-90294Y-64885D01*
X-89836Y-64990D01*
X-89419Y-65120D01*
X-89044Y-65277D01*
X-88711Y-65459D01*
X-88419Y-65667D01*
X-88165Y-65900D01*
X-87945Y-66156D01*
X-87758Y-66437D01*
X-87606Y-66741D01*
X-87487Y-67070D01*
X-87403Y-67422D01*
X-87352Y-67798D01*
X-87335Y-68198D01*
X-87347Y-68556D01*
X-87385Y-68895D01*
X-87448Y-69214D01*
X-87536Y-69513D01*
X-87649Y-69793D01*
X-87787Y-70053D01*
X-87951Y-70293D01*
X-88139Y-70514D01*
X-88353Y-70711D01*
X-88591Y-70883D01*
X-88855Y-71028D01*
X-89143Y-71147D01*
X-89455Y-71239D01*
X-89793Y-71305D01*
X-90156Y-71344D01*
X-90543Y-71357D01*
G37*
%LPC*%
G36*
X-90945Y-70033D02*
X-90736Y-70026D01*
X-90539Y-70003D01*
X-90354Y-69967D01*
X-90181Y-69915D01*
X-90021Y-69849D01*
X-89874Y-69768D01*
X-89739Y-69672D01*
X-89616Y-69562D01*
X-89507Y-69438D01*
X-89412Y-69302D01*
X-89332Y-69154D01*
X-89266Y-68993D01*
X-89215Y-68820D01*
X-89179Y-68635D01*
X-89157Y-68437D01*
X-89150Y-68228D01*
X-89171Y-67849D01*
X-89236Y-67509D01*
X-89343Y-67207D01*
X-89493Y-66942D01*
X-89684Y-66713D01*
X-89912Y-66516D01*
X-90177Y-66350D01*
X-90479Y-66216D01*
X-90838Y-66112D01*
X-91273Y-66035D01*
X-91783Y-65984D01*
X-92368Y-65961D01*
X-94301Y-65922D01*
X-94301Y-66795D01*
X-94294Y-66998D01*
X-94274Y-67200D01*
X-94192Y-67598D01*
X-94055Y-67992D01*
X-93864Y-68380D01*
X-93626Y-68744D01*
X-93348Y-69068D01*
X-93030Y-69350D01*
X-92672Y-69591D01*
X-92281Y-69785D01*
X-92075Y-69860D01*
X-91863Y-69923D01*
X-91644Y-69971D01*
X-91418Y-70005D01*
X-91185Y-70026D01*
X-90945Y-70033D01*
G37*
%LPD*%
G36*
X-34059Y-50021D02*
X-34374Y-50014D01*
X-34677Y-49990D01*
X-34968Y-49950D01*
X-35247Y-49895D01*
X-35514Y-49824D01*
X-35769Y-49737D01*
X-36011Y-49635D01*
X-36242Y-49516D01*
X-36463Y-49379D01*
X-36677Y-49219D01*
X-36884Y-49037D01*
X-37084Y-48833D01*
X-37278Y-48607D01*
X-37464Y-48358D01*
X-37644Y-48087D01*
X-37817Y-47794D01*
X-37875Y-47794D01*
X-37896Y-48060D01*
X-37929Y-48307D01*
X-37974Y-48536D01*
X-38031Y-48747D01*
X-38100Y-48940D01*
X-38182Y-49114D01*
X-38275Y-49270D01*
X-38381Y-49408D01*
X-38501Y-49529D01*
X-38637Y-49634D01*
X-38791Y-49722D01*
X-38961Y-49795D01*
X-39148Y-49851D01*
X-39351Y-49891D01*
X-39571Y-49915D01*
X-39808Y-49923D01*
X-40155Y-49913D01*
X-40498Y-49884D01*
X-40837Y-49835D01*
X-41172Y-49766D01*
X-41172Y-48667D01*
X-40865Y-48719D01*
X-40593Y-48736D01*
X-40454Y-48730D01*
X-40327Y-48711D01*
X-40211Y-48680D01*
X-40108Y-48637D01*
X-40015Y-48581D01*
X-39935Y-48513D01*
X-39866Y-48432D01*
X-39808Y-48339D01*
X-39718Y-48116D01*
X-39654Y-47845D01*
X-39615Y-47525D01*
X-39602Y-47157D01*
X-39602Y-42584D01*
X-39586Y-42163D01*
X-39539Y-41767D01*
X-39460Y-41397D01*
X-39350Y-41053D01*
X-39207Y-40734D01*
X-39034Y-40440D01*
X-38829Y-40173D01*
X-38592Y-39930D01*
X-38324Y-39715D01*
X-38024Y-39529D01*
X-37694Y-39371D01*
X-37333Y-39242D01*
X-36941Y-39142D01*
X-36518Y-39070D01*
X-36064Y-39027D01*
X-35580Y-39013D01*
X-35117Y-39024D01*
X-34680Y-39058D01*
X-34270Y-39114D01*
X-33886Y-39192D01*
X-33528Y-39293D01*
X-33196Y-39416D01*
X-32891Y-39561D01*
X-32612Y-39729D01*
X-32359Y-39920D01*
X-32132Y-40132D01*
X-31931Y-40367D01*
X-31757Y-40625D01*
X-31609Y-40904D01*
X-31487Y-41207D01*
X-31391Y-41531D01*
X-31321Y-41878D01*
X-33166Y-42045D01*
X-33200Y-41832D01*
X-33247Y-41633D01*
X-33308Y-41450D01*
X-33382Y-41282D01*
X-33469Y-41129D01*
X-33571Y-40991D01*
X-33685Y-40868D01*
X-33814Y-40759D01*
X-33959Y-40665D01*
X-34124Y-40583D01*
X-34309Y-40514D01*
X-34515Y-40458D01*
X-34741Y-40414D01*
X-34987Y-40382D01*
X-35254Y-40364D01*
X-35540Y-40357D01*
X-35825Y-40366D01*
X-36090Y-40392D01*
X-36335Y-40436D01*
X-36561Y-40497D01*
X-36767Y-40576D01*
X-36953Y-40672D01*
X-37120Y-40785D01*
X-37267Y-40916D01*
X-37396Y-41068D01*
X-37508Y-41242D01*
X-37602Y-41439D01*
X-37679Y-41660D01*
X-37739Y-41903D01*
X-37782Y-42169D01*
X-37808Y-42459D01*
X-37817Y-42771D01*
X-37817Y-43350D01*
X-35432Y-43389D01*
X-34850Y-43417D01*
X-34309Y-43470D01*
X-33809Y-43549D01*
X-33351Y-43654D01*
X-32935Y-43784D01*
X-32560Y-43941D01*
X-32226Y-44123D01*
X-31935Y-44331D01*
X-31681Y-44564D01*
X-31460Y-44820D01*
X-31274Y-45101D01*
X-31122Y-45405D01*
X-31003Y-45734D01*
X-30918Y-46086D01*
X-30867Y-46462D01*
X-30850Y-46862D01*
X-30863Y-47220D01*
X-30901Y-47559D01*
X-30964Y-47878D01*
X-31052Y-48177D01*
X-31165Y-48457D01*
X-31303Y-48717D01*
X-31466Y-48957D01*
X-31655Y-49178D01*
X-31869Y-49375D01*
X-32107Y-49547D01*
X-32370Y-49692D01*
X-32658Y-49811D01*
X-32971Y-49903D01*
X-33309Y-49969D01*
X-33671Y-50008D01*
X-34059Y-50021D01*
G37*
%LPC*%
G36*
X-34461Y-48697D02*
X-34251Y-48690D01*
X-34054Y-48667D01*
X-33869Y-48631D01*
X-33697Y-48579D01*
X-33537Y-48513D01*
X-33389Y-48432D01*
X-33254Y-48336D01*
X-33132Y-48226D01*
X-33022Y-48102D01*
X-32928Y-47966D01*
X-32848Y-47818D01*
X-32782Y-47657D01*
X-32731Y-47484D01*
X-32695Y-47299D01*
X-32673Y-47101D01*
X-32666Y-46892D01*
X-32687Y-46513D01*
X-32751Y-46173D01*
X-32859Y-45871D01*
X-33009Y-45606D01*
X-33199Y-45377D01*
X-33427Y-45180D01*
X-33692Y-45014D01*
X-33995Y-44880D01*
X-34354Y-44776D01*
X-34789Y-44699D01*
X-35298Y-44648D01*
X-35884Y-44625D01*
X-37817Y-44586D01*
X-37817Y-45459D01*
X-37810Y-45662D01*
X-37789Y-45864D01*
X-37707Y-46262D01*
X-37571Y-46656D01*
X-37380Y-47044D01*
X-37142Y-47408D01*
X-36864Y-47732D01*
X-36546Y-48014D01*
X-36188Y-48255D01*
X-35797Y-48449D01*
X-35591Y-48524D01*
X-35378Y-48587D01*
X-35159Y-48635D01*
X-34933Y-48669D01*
X-34701Y-48690D01*
X-34461Y-48697D01*
G37*
%LPD*%
G36*
X39144Y-71357D02*
X38829Y-71350D01*
X38526Y-71326D01*
X38235Y-71286D01*
X37956Y-71231D01*
X37689Y-71160D01*
X37434Y-71073D01*
X37192Y-70971D01*
X36961Y-70852D01*
X36740Y-70715D01*
X36526Y-70555D01*
X36319Y-70373D01*
X36119Y-70169D01*
X35925Y-69943D01*
X35739Y-69694D01*
X35559Y-69423D01*
X35387Y-69130D01*
X35328Y-69130D01*
X35307Y-69396D01*
X35274Y-69643D01*
X35229Y-69872D01*
X35172Y-70083D01*
X35103Y-70276D01*
X35021Y-70450D01*
X34928Y-70606D01*
X34822Y-70744D01*
X34702Y-70865D01*
X34566Y-70970D01*
X34412Y-71058D01*
X34242Y-71131D01*
X34056Y-71187D01*
X33852Y-71227D01*
X33632Y-71251D01*
X33395Y-71259D01*
X33048Y-71249D01*
X32706Y-71220D01*
X32367Y-71171D01*
X32031Y-71102D01*
X32031Y-70003D01*
X32338Y-70055D01*
X32610Y-70072D01*
X32749Y-70066D01*
X32876Y-70047D01*
X32992Y-70016D01*
X33096Y-69973D01*
X33188Y-69917D01*
X33269Y-69849D01*
X33338Y-69768D01*
X33395Y-69675D01*
X33485Y-69452D01*
X33549Y-69181D01*
X33588Y-68861D01*
X33601Y-68493D01*
X33601Y-63920D01*
X33617Y-63499D01*
X33664Y-63103D01*
X33743Y-62733D01*
X33854Y-62389D01*
X33996Y-62070D01*
X34169Y-61776D01*
X34375Y-61509D01*
X34611Y-61266D01*
X34880Y-61051D01*
X35179Y-60865D01*
X35509Y-60707D01*
X35870Y-60578D01*
X36262Y-60478D01*
X36685Y-60406D01*
X37139Y-60363D01*
X37624Y-60349D01*
X38086Y-60360D01*
X38523Y-60394D01*
X38933Y-60450D01*
X39317Y-60528D01*
X39675Y-60629D01*
X40007Y-60752D01*
X40312Y-60897D01*
X40592Y-61065D01*
X40845Y-61256D01*
X41071Y-61468D01*
X41272Y-61703D01*
X41446Y-61961D01*
X41595Y-62240D01*
X41716Y-62543D01*
X41812Y-62867D01*
X41882Y-63214D01*
X40037Y-63381D01*
X40003Y-63168D01*
X39956Y-62969D01*
X39896Y-62786D01*
X39821Y-62618D01*
X39734Y-62465D01*
X39632Y-62327D01*
X39518Y-62204D01*
X39390Y-62095D01*
X39245Y-62001D01*
X39079Y-61919D01*
X38894Y-61850D01*
X38688Y-61794D01*
X38462Y-61750D01*
X38216Y-61718D01*
X37950Y-61700D01*
X37663Y-61693D01*
X37378Y-61702D01*
X37113Y-61728D01*
X36868Y-61772D01*
X36642Y-61833D01*
X36436Y-61912D01*
X36250Y-62008D01*
X36083Y-62121D01*
X35936Y-62252D01*
X35807Y-62404D01*
X35696Y-62578D01*
X35601Y-62775D01*
X35524Y-62996D01*
X35464Y-63239D01*
X35421Y-63505D01*
X35395Y-63795D01*
X35387Y-64107D01*
X35387Y-64686D01*
X37771Y-64725D01*
X38353Y-64753D01*
X38894Y-64806D01*
X39394Y-64885D01*
X39852Y-64990D01*
X40268Y-65120D01*
X40643Y-65277D01*
X40977Y-65459D01*
X41269Y-65667D01*
X41523Y-65900D01*
X41743Y-66156D01*
X41929Y-66437D01*
X42082Y-66741D01*
X42200Y-67070D01*
X42285Y-67422D01*
X42336Y-67798D01*
X42353Y-68198D01*
X42340Y-68556D01*
X42302Y-68895D01*
X42240Y-69214D01*
X42152Y-69513D01*
X42038Y-69793D01*
X41900Y-70053D01*
X41737Y-70293D01*
X41548Y-70514D01*
X41335Y-70711D01*
X41096Y-70883D01*
X40833Y-71028D01*
X40545Y-71147D01*
X40232Y-71239D01*
X39894Y-71305D01*
X39532Y-71344D01*
X39144Y-71357D01*
G37*
%LPC*%
G36*
X38742Y-70033D02*
X38952Y-70026D01*
X39149Y-70003D01*
X39334Y-69967D01*
X39506Y-69915D01*
X39666Y-69849D01*
X39814Y-69768D01*
X39949Y-69672D01*
X40072Y-69562D01*
X40181Y-69438D01*
X40275Y-69302D01*
X40356Y-69154D01*
X40421Y-68993D01*
X40472Y-68820D01*
X40508Y-68635D01*
X40530Y-68437D01*
X40538Y-68228D01*
X40516Y-67849D01*
X40452Y-67509D01*
X40344Y-67207D01*
X40194Y-66942D01*
X40004Y-66713D01*
X39776Y-66516D01*
X39511Y-66350D01*
X39208Y-66216D01*
X38849Y-66112D01*
X38415Y-66035D01*
X37905Y-65984D01*
X37319Y-65961D01*
X35387Y-65922D01*
X35387Y-66795D01*
X35393Y-66998D01*
X35414Y-67200D01*
X35496Y-67598D01*
X35632Y-67992D01*
X35823Y-68380D01*
X36061Y-68744D01*
X36340Y-69068D01*
X36657Y-69350D01*
X37015Y-69591D01*
X37407Y-69785D01*
X37612Y-69860D01*
X37825Y-69923D01*
X38044Y-69971D01*
X38270Y-70005D01*
X38503Y-70026D01*
X38742Y-70033D01*
G37*
%LPD*%
G36*
X18351Y-71161D02*
X16605Y-71161D01*
X16605Y-64087D01*
X16616Y-63607D01*
X16651Y-63161D01*
X16708Y-62751D01*
X16788Y-62375D01*
X16891Y-62034D01*
X17016Y-61729D01*
X17165Y-61458D01*
X17336Y-61222D01*
X17532Y-61018D01*
X17756Y-60840D01*
X18008Y-60690D01*
X18286Y-60567D01*
X18593Y-60472D01*
X18926Y-60404D01*
X19287Y-60363D01*
X19676Y-60349D01*
X19948Y-60356D01*
X20210Y-60378D01*
X20461Y-60415D01*
X20703Y-60467D01*
X20934Y-60533D01*
X21154Y-60614D01*
X21365Y-60710D01*
X21565Y-60820D01*
X21756Y-60947D01*
X21940Y-61093D01*
X22117Y-61257D01*
X22287Y-61441D01*
X22450Y-61642D01*
X22605Y-61863D01*
X22894Y-62360D01*
X22924Y-62360D01*
X22999Y-62107D01*
X23088Y-61871D01*
X23190Y-61653D01*
X23305Y-61453D01*
X23434Y-61270D01*
X23576Y-61106D01*
X23731Y-60959D01*
X23900Y-60830D01*
X24083Y-60717D01*
X24282Y-60619D01*
X24497Y-60537D01*
X24728Y-60469D01*
X24974Y-60417D01*
X25236Y-60379D01*
X25514Y-60357D01*
X25808Y-60349D01*
X26068Y-60356D01*
X26318Y-60377D01*
X26557Y-60411D01*
X26787Y-60459D01*
X27006Y-60522D01*
X27215Y-60597D01*
X27415Y-60687D01*
X27604Y-60791D01*
X27785Y-60912D01*
X27961Y-61054D01*
X28132Y-61218D01*
X28298Y-61404D01*
X28458Y-61611D01*
X28614Y-61839D01*
X28909Y-62360D01*
X28938Y-62360D01*
X28972Y-61306D01*
X28997Y-60810D01*
X29016Y-60545D01*
X30684Y-60545D01*
X30659Y-60841D01*
X30640Y-61318D01*
X30626Y-62812D01*
X30626Y-71161D01*
X28869Y-71161D01*
X28869Y-65009D01*
X28859Y-64628D01*
X28828Y-64269D01*
X28777Y-63931D01*
X28705Y-63616D01*
X28613Y-63323D01*
X28500Y-63052D01*
X28366Y-62803D01*
X28212Y-62576D01*
X28040Y-62374D01*
X27854Y-62199D01*
X27653Y-62050D01*
X27437Y-61929D01*
X27206Y-61834D01*
X26961Y-61767D01*
X26701Y-61726D01*
X26426Y-61713D01*
X26162Y-61722D01*
X25919Y-61750D01*
X25697Y-61796D01*
X25497Y-61860D01*
X25317Y-61943D01*
X25159Y-62044D01*
X25022Y-62164D01*
X24906Y-62302D01*
X24807Y-62464D01*
X24721Y-62655D01*
X24648Y-62877D01*
X24589Y-63128D01*
X24543Y-63409D01*
X24510Y-63720D01*
X24490Y-64060D01*
X24484Y-64431D01*
X24484Y-71161D01*
X22737Y-71161D01*
X22737Y-65009D01*
X22727Y-64626D01*
X22697Y-64265D01*
X22647Y-63926D01*
X22577Y-63610D01*
X22486Y-63317D01*
X22376Y-63046D01*
X22245Y-62797D01*
X22095Y-62571D01*
X21926Y-62370D01*
X21741Y-62196D01*
X21540Y-62048D01*
X21323Y-61927D01*
X21090Y-61834D01*
X20841Y-61766D01*
X20576Y-61726D01*
X20294Y-61713D01*
X20030Y-61722D01*
X19787Y-61750D01*
X19565Y-61796D01*
X19365Y-61860D01*
X19185Y-61943D01*
X19027Y-62044D01*
X18889Y-62164D01*
X18773Y-62302D01*
X18675Y-62464D01*
X18589Y-62655D01*
X18516Y-62877D01*
X18457Y-63128D01*
X18411Y-63409D01*
X18378Y-63720D01*
X18358Y-64060D01*
X18351Y-64431D01*
X18351Y-71161D01*
G37*
G36*
X-57145Y-28489D02*
X-58813Y-28489D01*
X-58813Y-25359D01*
X-60755Y-25359D01*
X-60755Y-23966D01*
X-58813Y-23966D01*
X-58813Y-14665D01*
X-56958Y-14665D01*
X-50630Y-23986D01*
X-50630Y-25359D01*
X-57145Y-25359D01*
X-57145Y-28489D01*
G37*
%LPC*%
G36*
X-52259Y-23966D02*
X-52416Y-23770D01*
X-52945Y-23044D01*
X-56487Y-17824D01*
X-56870Y-17177D01*
X-57145Y-16657D01*
X-57145Y-23966D01*
X-52259Y-23966D01*
G37*
%LPD*%
G36*
X26449Y-49825D02*
X15558Y-49825D01*
X15558Y-48295D01*
X24575Y-48295D01*
X24575Y-43477D01*
X16549Y-43477D01*
X16549Y-41966D01*
X24575Y-41966D01*
X24575Y-37532D01*
X15960Y-37532D01*
X15960Y-36001D01*
X26449Y-36001D01*
X26449Y-49825D01*
G37*
G36*
X16879Y-28685D02*
X16467Y-28676D01*
X16073Y-28646D01*
X15699Y-28597D01*
X15343Y-28528D01*
X15006Y-28440D01*
X14688Y-28332D01*
X14390Y-28205D01*
X14110Y-28058D01*
X13849Y-27891D01*
X13607Y-27704D01*
X13384Y-27498D01*
X13180Y-27273D01*
X12994Y-27027D01*
X12828Y-26762D01*
X12681Y-26478D01*
X12552Y-26174D01*
X14102Y-25732D01*
X14171Y-25905D01*
X14253Y-26070D01*
X14459Y-26377D01*
X14721Y-26654D01*
X15039Y-26900D01*
X15219Y-27008D01*
X15414Y-27102D01*
X15622Y-27181D01*
X15845Y-27246D01*
X16082Y-27296D01*
X16334Y-27332D01*
X16599Y-27354D01*
X16879Y-27361D01*
X17231Y-27345D01*
X17562Y-27299D01*
X17870Y-27222D01*
X18157Y-27113D01*
X18422Y-26974D01*
X18665Y-26803D01*
X18887Y-26602D01*
X19087Y-26370D01*
X19264Y-26109D01*
X19417Y-25822D01*
X19547Y-25509D01*
X19653Y-25171D01*
X19736Y-24805D01*
X19795Y-24414D01*
X19830Y-23997D01*
X19842Y-23554D01*
X12268Y-23554D01*
X12268Y-23319D01*
X12286Y-22635D01*
X12341Y-21996D01*
X12432Y-21401D01*
X12560Y-20850D01*
X12725Y-20344D01*
X12926Y-19881D01*
X13163Y-19462D01*
X13438Y-19087D01*
X13748Y-18757D01*
X14096Y-18470D01*
X14480Y-18228D01*
X14900Y-18030D01*
X15357Y-17875D01*
X15851Y-17765D01*
X16381Y-17699D01*
X16948Y-17677D01*
X17503Y-17699D01*
X18025Y-17765D01*
X18514Y-17874D01*
X18970Y-18028D01*
X19393Y-18225D01*
X19784Y-18466D01*
X20141Y-18751D01*
X20465Y-19080D01*
X20754Y-19450D01*
X21004Y-19858D01*
X21215Y-20305D01*
X21389Y-20790D01*
X21523Y-21313D01*
X21619Y-21874D01*
X21677Y-22474D01*
X21696Y-23113D01*
X21677Y-23783D01*
X21619Y-24411D01*
X21523Y-24996D01*
X21389Y-25538D01*
X21215Y-26038D01*
X21004Y-26496D01*
X20754Y-26910D01*
X20465Y-27282D01*
X20140Y-27611D01*
X19779Y-27896D01*
X19384Y-28137D01*
X18953Y-28335D01*
X18487Y-28488D01*
X17986Y-28598D01*
X17450Y-28663D01*
X16879Y-28685D01*
G37*
%LPC*%
G36*
X19822Y-22200D02*
X19797Y-21835D01*
X19750Y-21490D01*
X19681Y-21165D01*
X19591Y-20860D01*
X19479Y-20575D01*
X19345Y-20310D01*
X19190Y-20065D01*
X19013Y-19840D01*
X18817Y-19639D01*
X18604Y-19465D01*
X18375Y-19317D01*
X18129Y-19197D01*
X17866Y-19103D01*
X17586Y-19036D01*
X17290Y-18995D01*
X16977Y-18982D01*
X16656Y-18994D01*
X16354Y-19030D01*
X16071Y-19090D01*
X15807Y-19175D01*
X15563Y-19283D01*
X15338Y-19415D01*
X15132Y-19572D01*
X14946Y-19752D01*
X14778Y-19959D01*
X14628Y-20194D01*
X14495Y-20457D01*
X14380Y-20749D01*
X14282Y-21069D01*
X14201Y-21418D01*
X14138Y-21795D01*
X14093Y-22200D01*
X19822Y-22200D01*
G37*
%LPD*%
G36*
X60457Y-50021D02*
X60045Y-50012D01*
X59651Y-49982D01*
X59277Y-49933D01*
X58921Y-49864D01*
X58584Y-49776D01*
X58267Y-49668D01*
X57968Y-49541D01*
X57688Y-49394D01*
X57427Y-49227D01*
X57185Y-49040D01*
X56962Y-48834D01*
X56758Y-48609D01*
X56572Y-48363D01*
X56406Y-48098D01*
X56259Y-47814D01*
X56130Y-47510D01*
X57681Y-47068D01*
X57749Y-47241D01*
X57831Y-47406D01*
X58037Y-47713D01*
X58300Y-47990D01*
X58618Y-48236D01*
X58798Y-48344D01*
X58992Y-48438D01*
X59200Y-48517D01*
X59423Y-48582D01*
X59660Y-48632D01*
X59912Y-48668D01*
X60177Y-48690D01*
X60457Y-48697D01*
X60809Y-48681D01*
X61140Y-48635D01*
X61448Y-48558D01*
X61735Y-48449D01*
X62000Y-48310D01*
X62243Y-48139D01*
X62465Y-47938D01*
X62665Y-47706D01*
X62842Y-47445D01*
X62995Y-47158D01*
X63125Y-46845D01*
X63231Y-46507D01*
X63314Y-46141D01*
X63373Y-45750D01*
X63408Y-45333D01*
X63420Y-44890D01*
X55846Y-44890D01*
X55846Y-44655D01*
X55864Y-43971D01*
X55919Y-43332D01*
X56010Y-42737D01*
X56138Y-42186D01*
X56303Y-41680D01*
X56504Y-41217D01*
X56742Y-40798D01*
X57016Y-40423D01*
X57327Y-40093D01*
X57674Y-39806D01*
X58058Y-39564D01*
X58478Y-39366D01*
X58935Y-39211D01*
X59429Y-39101D01*
X59959Y-39035D01*
X60526Y-39013D01*
X61081Y-39035D01*
X61603Y-39101D01*
X62092Y-39210D01*
X62548Y-39364D01*
X62971Y-39561D01*
X63362Y-39802D01*
X63719Y-40087D01*
X64043Y-40416D01*
X64332Y-40786D01*
X64582Y-41194D01*
X64794Y-41641D01*
X64967Y-42126D01*
X65101Y-42649D01*
X65198Y-43210D01*
X65255Y-43810D01*
X65275Y-44449D01*
X65255Y-45119D01*
X65198Y-45747D01*
X65101Y-46332D01*
X64967Y-46874D01*
X64794Y-47374D01*
X64582Y-47832D01*
X64332Y-48246D01*
X64043Y-48618D01*
X63718Y-48947D01*
X63357Y-49232D01*
X62962Y-49473D01*
X62531Y-49671D01*
X62065Y-49824D01*
X61564Y-49934D01*
X61028Y-49999D01*
X60457Y-50021D01*
G37*
%LPC*%
G36*
X63401Y-43536D02*
X63375Y-43171D01*
X63328Y-42826D01*
X63259Y-42501D01*
X63169Y-42196D01*
X63057Y-41911D01*
X62923Y-41646D01*
X62768Y-41401D01*
X62591Y-41176D01*
X62395Y-40975D01*
X62182Y-40801D01*
X61953Y-40653D01*
X61707Y-40533D01*
X61444Y-40439D01*
X61165Y-40372D01*
X60868Y-40331D01*
X60555Y-40318D01*
X60234Y-40330D01*
X59932Y-40366D01*
X59649Y-40426D01*
X59385Y-40511D01*
X59141Y-40619D01*
X58916Y-40751D01*
X58711Y-40908D01*
X58524Y-41088D01*
X58356Y-41295D01*
X58206Y-41530D01*
X58073Y-41793D01*
X57958Y-42085D01*
X57860Y-42405D01*
X57779Y-42754D01*
X57716Y-43131D01*
X57671Y-43536D01*
X63401Y-43536D01*
G37*
%LPD*%
G36*
X69630Y-49825D02*
X67756Y-49825D01*
X67756Y-36001D01*
X69630Y-36001D01*
X69630Y-41849D01*
X77106Y-41849D01*
X77106Y-36001D01*
X78980Y-36001D01*
X78980Y-49825D01*
X77106Y-49825D01*
X77106Y-43418D01*
X69630Y-43418D01*
X69630Y-49825D01*
G37*
G36*
X-23939Y-71357D02*
X-24599Y-71341D01*
X-25221Y-71292D01*
X-25805Y-71210D01*
X-26351Y-71095D01*
X-26859Y-70947D01*
X-27328Y-70767D01*
X-27759Y-70554D01*
X-28153Y-70308D01*
X-28503Y-70032D01*
X-28807Y-69729D01*
X-29064Y-69399D01*
X-29275Y-69042D01*
X-29438Y-68658D01*
X-29555Y-68247D01*
X-29625Y-67809D01*
X-29649Y-67345D01*
X-29636Y-66979D01*
X-29596Y-66638D01*
X-29530Y-66322D01*
X-29438Y-66030D01*
X-29322Y-65759D01*
X-29186Y-65507D01*
X-29030Y-65274D01*
X-28854Y-65059D01*
X-28659Y-64860D01*
X-28448Y-64678D01*
X-28220Y-64512D01*
X-27976Y-64362D01*
X-27452Y-64096D01*
X-26892Y-63866D01*
X-26299Y-63670D01*
X-25680Y-63503D01*
X-24410Y-63204D01*
X-23537Y-63002D01*
X-22823Y-62815D01*
X-22266Y-62646D01*
X-21868Y-62493D01*
X-21568Y-62340D01*
X-21305Y-62172D01*
X-21080Y-61987D01*
X-20892Y-61786D01*
X-20744Y-61564D01*
X-20638Y-61314D01*
X-20575Y-61037D01*
X-20554Y-60732D01*
X-20567Y-60468D01*
X-20608Y-60221D01*
X-20676Y-59991D01*
X-20772Y-59778D01*
X-20895Y-59581D01*
X-21045Y-59402D01*
X-21222Y-59239D01*
X-21427Y-59093D01*
X-21657Y-58964D01*
X-21913Y-58853D01*
X-22192Y-58758D01*
X-22496Y-58681D01*
X-22825Y-58621D01*
X-23178Y-58578D01*
X-23556Y-58552D01*
X-23958Y-58544D01*
X-24326Y-58551D01*
X-24673Y-58575D01*
X-24999Y-58613D01*
X-25305Y-58668D01*
X-25590Y-58737D01*
X-25855Y-58822D01*
X-26099Y-58923D01*
X-26323Y-59039D01*
X-26528Y-59173D01*
X-26715Y-59325D01*
X-26886Y-59496D01*
X-27039Y-59686D01*
X-27175Y-59894D01*
X-27294Y-60122D01*
X-27396Y-60368D01*
X-27481Y-60634D01*
X-29325Y-60310D01*
X-29188Y-59892D01*
X-29028Y-59505D01*
X-28845Y-59150D01*
X-28638Y-58827D01*
X-28408Y-58536D01*
X-28155Y-58276D01*
X-27879Y-58048D01*
X-27579Y-57852D01*
X-27250Y-57683D01*
X-26886Y-57537D01*
X-26488Y-57413D01*
X-26055Y-57311D01*
X-25588Y-57232D01*
X-25086Y-57176D01*
X-24549Y-57142D01*
X-23978Y-57131D01*
X-23363Y-57146D01*
X-22785Y-57191D01*
X-22244Y-57266D01*
X-21740Y-57371D01*
X-21272Y-57507D01*
X-20840Y-57672D01*
X-20446Y-57867D01*
X-20088Y-58092D01*
X-19769Y-58346D01*
X-19493Y-58624D01*
X-19260Y-58928D01*
X-19068Y-59258D01*
X-18920Y-59612D01*
X-18814Y-59993D01*
X-18750Y-60399D01*
X-18729Y-60830D01*
X-18745Y-61206D01*
X-18794Y-61561D01*
X-18875Y-61893D01*
X-18989Y-62203D01*
X-19133Y-62493D01*
X-19306Y-62764D01*
X-19508Y-63016D01*
X-19739Y-63248D01*
X-20007Y-63466D01*
X-20319Y-63674D01*
X-20677Y-63871D01*
X-21079Y-64058D01*
X-21552Y-64239D01*
X-22125Y-64421D01*
X-22796Y-64602D01*
X-23566Y-64784D01*
X-25283Y-65186D01*
X-25657Y-65285D01*
X-26004Y-65395D01*
X-26324Y-65515D01*
X-26617Y-65647D01*
X-26881Y-65794D01*
X-27114Y-65959D01*
X-27315Y-66142D01*
X-27485Y-66344D01*
X-27621Y-66571D01*
X-27717Y-66829D01*
X-27775Y-67120D01*
X-27794Y-67443D01*
X-27779Y-67735D01*
X-27733Y-68010D01*
X-27656Y-68266D01*
X-27548Y-68504D01*
X-27409Y-68723D01*
X-27240Y-68925D01*
X-27040Y-69108D01*
X-26808Y-69273D01*
X-26549Y-69419D01*
X-26264Y-69545D01*
X-25952Y-69652D01*
X-25615Y-69740D01*
X-25252Y-69808D01*
X-24863Y-69857D01*
X-24448Y-69886D01*
X-24007Y-69896D01*
X-23580Y-69886D01*
X-23175Y-69859D01*
X-22794Y-69813D01*
X-22435Y-69750D01*
X-22099Y-69668D01*
X-21787Y-69567D01*
X-21497Y-69449D01*
X-21231Y-69312D01*
X-20987Y-69155D01*
X-20765Y-68978D01*
X-20565Y-68781D01*
X-20387Y-68562D01*
X-20231Y-68323D01*
X-20097Y-68064D01*
X-19986Y-67783D01*
X-19896Y-67482D01*
X-18081Y-67845D01*
X-18198Y-68270D01*
X-18349Y-68668D01*
X-18532Y-69039D01*
X-18749Y-69382D01*
X-18999Y-69697D01*
X-19282Y-69985D01*
X-19598Y-70246D01*
X-19948Y-70479D01*
X-20331Y-70685D01*
X-20746Y-70864D01*
X-21195Y-71014D01*
X-21678Y-71138D01*
X-22193Y-71234D01*
X-22742Y-71303D01*
X-23324Y-71344D01*
X-23939Y-71357D01*
G37*
G36*
X29186Y-28685D02*
X28526Y-28669D01*
X27904Y-28620D01*
X27320Y-28538D01*
X26774Y-28423D01*
X26266Y-28275D01*
X25797Y-28095D01*
X25366Y-27882D01*
X24972Y-27636D01*
X24622Y-27360D01*
X24318Y-27057D01*
X24061Y-26727D01*
X23850Y-26370D01*
X23687Y-25986D01*
X23570Y-25575D01*
X23500Y-25137D01*
X23476Y-24673D01*
X23489Y-24307D01*
X23529Y-23966D01*
X23595Y-23650D01*
X23687Y-23358D01*
X23803Y-23087D01*
X23939Y-22835D01*
X24095Y-22602D01*
X24271Y-22387D01*
X24466Y-22188D01*
X24677Y-22006D01*
X24905Y-21840D01*
X25149Y-21690D01*
X25673Y-21424D01*
X26233Y-21194D01*
X26826Y-20998D01*
X27445Y-20831D01*
X28715Y-20532D01*
X29588Y-20330D01*
X30302Y-20143D01*
X30859Y-19974D01*
X31257Y-19821D01*
X31557Y-19668D01*
X31820Y-19500D01*
X32045Y-19315D01*
X32233Y-19114D01*
X32381Y-18892D01*
X32487Y-18642D01*
X32550Y-18365D01*
X32571Y-18060D01*
X32558Y-17796D01*
X32517Y-17549D01*
X32449Y-17319D01*
X32353Y-17106D01*
X32230Y-16909D01*
X32080Y-16730D01*
X31903Y-16567D01*
X31698Y-16421D01*
X31468Y-16292D01*
X31212Y-16181D01*
X30933Y-16086D01*
X30629Y-16009D01*
X30300Y-15949D01*
X29947Y-15906D01*
X29569Y-15880D01*
X29167Y-15872D01*
X28799Y-15879D01*
X28452Y-15903D01*
X28126Y-15941D01*
X27820Y-15996D01*
X27535Y-16065D01*
X27270Y-16150D01*
X27026Y-16251D01*
X26802Y-16367D01*
X26597Y-16501D01*
X26410Y-16653D01*
X26239Y-16824D01*
X26086Y-17014D01*
X25950Y-17222D01*
X25831Y-17450D01*
X25729Y-17696D01*
X25644Y-17962D01*
X23800Y-17638D01*
X23937Y-17220D01*
X24097Y-16833D01*
X24280Y-16478D01*
X24487Y-16155D01*
X24717Y-15864D01*
X24970Y-15604D01*
X25247Y-15376D01*
X25546Y-15180D01*
X25875Y-15011D01*
X26239Y-14865D01*
X26637Y-14741D01*
X27070Y-14639D01*
X27537Y-14560D01*
X28039Y-14504D01*
X28576Y-14470D01*
X29147Y-14459D01*
X29762Y-14474D01*
X30340Y-14519D01*
X30881Y-14594D01*
X31385Y-14699D01*
X31853Y-14835D01*
X32285Y-15000D01*
X32679Y-15195D01*
X33037Y-15420D01*
X33356Y-15674D01*
X33632Y-15952D01*
X33865Y-16256D01*
X34057Y-16586D01*
X34205Y-16940D01*
X34311Y-17321D01*
X34375Y-17727D01*
X34396Y-18158D01*
X34380Y-18534D01*
X34331Y-18889D01*
X34250Y-19221D01*
X34136Y-19531D01*
X33992Y-19821D01*
X33819Y-20092D01*
X33617Y-20344D01*
X33386Y-20576D01*
X33118Y-20794D01*
X32806Y-21002D01*
X32448Y-21199D01*
X32046Y-21386D01*
X31573Y-21567D01*
X31000Y-21749D01*
X30329Y-21930D01*
X29559Y-22112D01*
X27842Y-22514D01*
X27468Y-22613D01*
X27121Y-22723D01*
X26801Y-22843D01*
X26508Y-22975D01*
X26244Y-23122D01*
X26011Y-23287D01*
X25810Y-23470D01*
X25640Y-23672D01*
X25504Y-23899D01*
X25408Y-24157D01*
X25350Y-24448D01*
X25331Y-24771D01*
X25346Y-25063D01*
X25392Y-25338D01*
X25469Y-25594D01*
X25577Y-25832D01*
X25716Y-26051D01*
X25885Y-26253D01*
X26085Y-26436D01*
X26317Y-26601D01*
X26576Y-26747D01*
X26861Y-26873D01*
X27173Y-26980D01*
X27510Y-27068D01*
X27873Y-27136D01*
X28262Y-27185D01*
X28677Y-27214D01*
X29118Y-27224D01*
X29545Y-27214D01*
X29950Y-27187D01*
X30331Y-27141D01*
X30690Y-27078D01*
X31026Y-26996D01*
X31338Y-26895D01*
X31628Y-26777D01*
X31894Y-26640D01*
X32138Y-26483D01*
X32360Y-26306D01*
X32560Y-26109D01*
X32738Y-25890D01*
X32894Y-25651D01*
X33028Y-25392D01*
X33139Y-25111D01*
X33229Y-24810D01*
X35044Y-25173D01*
X34927Y-25598D01*
X34776Y-25996D01*
X34593Y-26367D01*
X34376Y-26710D01*
X34126Y-27025D01*
X33843Y-27313D01*
X33527Y-27574D01*
X33177Y-27807D01*
X32795Y-28013D01*
X32379Y-28192D01*
X31930Y-28342D01*
X31447Y-28466D01*
X30932Y-28562D01*
X30383Y-28631D01*
X29801Y-28672D01*
X29186Y-28685D01*
G37*
G36*
X-107137Y-71161D02*
X-109187Y-71161D01*
X-112229Y-60545D01*
X-110502Y-60545D01*
X-108491Y-68336D01*
X-108187Y-69699D01*
X-107735Y-67835D01*
X-105881Y-60545D01*
X-103987Y-60545D01*
X-101770Y-68973D01*
X-101603Y-69699D01*
X-101321Y-68360D01*
X-101181Y-67757D01*
X-99386Y-60545D01*
X-97639Y-60545D01*
X-100612Y-71161D01*
X-102653Y-71161D01*
X-104061Y-65656D01*
X-104654Y-63268D01*
X-104929Y-61997D01*
X-105282Y-63655D01*
X-107137Y-71161D01*
G37*
G36*
X-38669Y-71161D02*
X-40445Y-71161D01*
X-40445Y-64087D01*
X-40432Y-63600D01*
X-40394Y-63149D01*
X-40330Y-62735D01*
X-40240Y-62357D01*
X-40125Y-62015D01*
X-39984Y-61709D01*
X-39818Y-61440D01*
X-39626Y-61208D01*
X-39407Y-61006D01*
X-39160Y-60832D01*
X-38884Y-60684D01*
X-38580Y-60564D01*
X-38247Y-60470D01*
X-37887Y-60403D01*
X-37497Y-60362D01*
X-37080Y-60349D01*
X-36780Y-60357D01*
X-36493Y-60379D01*
X-36220Y-60417D01*
X-35960Y-60470D01*
X-35714Y-60539D01*
X-35480Y-60622D01*
X-35260Y-60721D01*
X-35054Y-60835D01*
X-34858Y-60965D01*
X-34669Y-61112D01*
X-34487Y-61277D01*
X-34312Y-61459D01*
X-33984Y-61875D01*
X-33685Y-62360D01*
X-33656Y-62360D01*
X-33700Y-61625D01*
X-33726Y-60997D01*
X-33734Y-60388D01*
X-33734Y-56601D01*
X-31968Y-56601D01*
X-31968Y-71161D01*
X-33734Y-71161D01*
X-33734Y-64902D01*
X-33746Y-64545D01*
X-33781Y-64208D01*
X-33840Y-63889D01*
X-33922Y-63589D01*
X-34027Y-63308D01*
X-34156Y-63045D01*
X-34309Y-62801D01*
X-34485Y-62576D01*
X-34680Y-62374D01*
X-34891Y-62199D01*
X-35117Y-62050D01*
X-35359Y-61929D01*
X-35617Y-61834D01*
X-35889Y-61767D01*
X-36178Y-61726D01*
X-36481Y-61713D01*
X-36876Y-61729D01*
X-37225Y-61777D01*
X-37528Y-61856D01*
X-37786Y-61968D01*
X-38005Y-62114D01*
X-38191Y-62295D01*
X-38344Y-62513D01*
X-38463Y-62768D01*
X-38554Y-63076D01*
X-38618Y-63456D01*
X-38657Y-63907D01*
X-38669Y-64431D01*
X-38669Y-71161D01*
G37*
G36*
X-70383Y-49825D02*
X-72326Y-49825D01*
X-77967Y-36001D01*
X-75995Y-36001D01*
X-72188Y-45734D01*
X-71364Y-48177D01*
X-70540Y-45734D01*
X-66714Y-36001D01*
X-64741Y-36001D01*
X-70383Y-49825D01*
G37*
G36*
X-39992Y-28489D02*
X-49146Y-28489D01*
X-49146Y-26988D01*
X-41934Y-26988D01*
X-42105Y-26641D01*
X-42322Y-26288D01*
X-42586Y-25928D01*
X-42896Y-25561D01*
X-43258Y-25179D01*
X-43678Y-24774D01*
X-44156Y-24347D01*
X-44691Y-23897D01*
X-45634Y-23118D01*
X-46411Y-22448D01*
X-47022Y-21887D01*
X-47468Y-21435D01*
X-47809Y-21037D01*
X-48105Y-20640D01*
X-48356Y-20243D01*
X-48562Y-19845D01*
X-48723Y-19447D01*
X-48838Y-19048D01*
X-48907Y-18648D01*
X-48930Y-18246D01*
X-48912Y-17805D01*
X-48860Y-17390D01*
X-48772Y-17001D01*
X-48649Y-16638D01*
X-48491Y-16301D01*
X-48298Y-15990D01*
X-48070Y-15704D01*
X-47807Y-15445D01*
X-47511Y-15214D01*
X-47185Y-15014D01*
X-46828Y-14844D01*
X-46442Y-14705D01*
X-46025Y-14598D01*
X-45578Y-14521D01*
X-45101Y-14474D01*
X-44593Y-14459D01*
X-44128Y-14474D01*
X-43685Y-14520D01*
X-43263Y-14597D01*
X-42863Y-14704D01*
X-42484Y-14842D01*
X-42127Y-15011D01*
X-41792Y-15210D01*
X-41478Y-15440D01*
X-41191Y-15696D01*
X-40936Y-15973D01*
X-40712Y-16271D01*
X-40520Y-16590D01*
X-40360Y-16931D01*
X-40232Y-17293D01*
X-40135Y-17675D01*
X-40070Y-18079D01*
X-41876Y-18246D01*
X-41917Y-17977D01*
X-41977Y-17723D01*
X-42056Y-17484D01*
X-42154Y-17261D01*
X-42271Y-17054D01*
X-42406Y-16862D01*
X-42561Y-16685D01*
X-42734Y-16524D01*
X-42923Y-16380D01*
X-43124Y-16256D01*
X-43338Y-16151D01*
X-43564Y-16064D01*
X-43803Y-15997D01*
X-44054Y-15949D01*
X-44318Y-15921D01*
X-44593Y-15911D01*
X-44882Y-15921D01*
X-45154Y-15950D01*
X-45411Y-15999D01*
X-45651Y-16068D01*
X-45874Y-16156D01*
X-46082Y-16264D01*
X-46273Y-16392D01*
X-46448Y-16539D01*
X-46604Y-16704D01*
X-46740Y-16885D01*
X-46854Y-17082D01*
X-46948Y-17294D01*
X-47021Y-17523D01*
X-47073Y-17768D01*
X-47104Y-18028D01*
X-47115Y-18305D01*
X-47109Y-18513D01*
X-47091Y-18716D01*
X-47018Y-19105D01*
X-46897Y-19471D01*
X-46727Y-19816D01*
X-46519Y-20146D01*
X-46280Y-20468D01*
X-46011Y-20784D01*
X-45712Y-21091D01*
X-45046Y-21700D01*
X-44304Y-22308D01*
X-43520Y-22942D01*
X-42729Y-23628D01*
X-42336Y-23994D01*
X-41953Y-24381D01*
X-41579Y-24788D01*
X-41213Y-25217D01*
X-40867Y-25673D01*
X-40547Y-26163D01*
X-40256Y-26686D01*
X-39992Y-27243D01*
X-39992Y-28489D01*
G37*
G36*
X-17617Y-28489D02*
X-26771Y-28489D01*
X-26771Y-26988D01*
X-19559Y-26988D01*
X-19730Y-26641D01*
X-19947Y-26288D01*
X-20211Y-25928D01*
X-20521Y-25561D01*
X-20883Y-25179D01*
X-21303Y-24774D01*
X-21781Y-24347D01*
X-22316Y-23897D01*
X-23259Y-23118D01*
X-24036Y-22448D01*
X-24647Y-21887D01*
X-25093Y-21435D01*
X-25434Y-21037D01*
X-25730Y-20640D01*
X-25981Y-20243D01*
X-26187Y-19845D01*
X-26348Y-19447D01*
X-26463Y-19048D01*
X-26532Y-18648D01*
X-26555Y-18246D01*
X-26537Y-17805D01*
X-26485Y-17390D01*
X-26397Y-17001D01*
X-26274Y-16638D01*
X-26116Y-16301D01*
X-25923Y-15990D01*
X-25695Y-15704D01*
X-25432Y-15445D01*
X-25136Y-15214D01*
X-24810Y-15014D01*
X-24453Y-14844D01*
X-24067Y-14705D01*
X-23650Y-14598D01*
X-23203Y-14521D01*
X-22726Y-14474D01*
X-22218Y-14459D01*
X-21753Y-14474D01*
X-21310Y-14520D01*
X-20888Y-14597D01*
X-20488Y-14704D01*
X-20109Y-14842D01*
X-19752Y-15011D01*
X-19417Y-15210D01*
X-19103Y-15440D01*
X-18816Y-15696D01*
X-18561Y-15973D01*
X-18337Y-16271D01*
X-18145Y-16590D01*
X-17985Y-16931D01*
X-17857Y-17293D01*
X-17760Y-17675D01*
X-17695Y-18079D01*
X-19501Y-18246D01*
X-19542Y-17977D01*
X-19602Y-17723D01*
X-19681Y-17484D01*
X-19779Y-17261D01*
X-19896Y-17054D01*
X-20031Y-16862D01*
X-20186Y-16685D01*
X-20359Y-16524D01*
X-20548Y-16380D01*
X-20749Y-16256D01*
X-20963Y-16151D01*
X-21189Y-16064D01*
X-21428Y-15997D01*
X-21679Y-15949D01*
X-21943Y-15921D01*
X-22218Y-15911D01*
X-22507Y-15921D01*
X-22779Y-15950D01*
X-23036Y-15999D01*
X-23276Y-16068D01*
X-23499Y-16156D01*
X-23707Y-16264D01*
X-23898Y-16392D01*
X-24073Y-16539D01*
X-24229Y-16704D01*
X-24365Y-16885D01*
X-24479Y-17082D01*
X-24573Y-17294D01*
X-24646Y-17523D01*
X-24698Y-17768D01*
X-24729Y-18028D01*
X-24740Y-18305D01*
X-24734Y-18513D01*
X-24716Y-18716D01*
X-24643Y-19105D01*
X-24522Y-19471D01*
X-24352Y-19816D01*
X-24144Y-20146D01*
X-23905Y-20468D01*
X-23636Y-20784D01*
X-23337Y-21091D01*
X-22671Y-21700D01*
X-21929Y-22308D01*
X-21145Y-22942D01*
X-20354Y-23628D01*
X-19961Y-23994D01*
X-19578Y-24381D01*
X-19204Y-24788D01*
X-18838Y-25217D01*
X-18492Y-25673D01*
X-18172Y-26163D01*
X-17881Y-26686D01*
X-17617Y-27243D01*
X-17617Y-28489D01*
G37*
G36*
X71489Y-75331D02*
X71273Y-75325D01*
X71063Y-75306D01*
X70661Y-75229D01*
X70281Y-75102D01*
X69924Y-74924D01*
X69585Y-74694D01*
X69263Y-74411D01*
X68955Y-74076D01*
X68663Y-73688D01*
X68373Y-73219D01*
X68072Y-72641D01*
X67760Y-71956D01*
X67436Y-71161D01*
X63355Y-60545D01*
X65219Y-60545D01*
X67544Y-67305D01*
X68231Y-69238D01*
X68633Y-68022D01*
X69075Y-66741D01*
X69193Y-66413D01*
X71430Y-60545D01*
X73313Y-60545D01*
X69104Y-71112D01*
X69271Y-71534D01*
X69522Y-72102D01*
X69795Y-72594D01*
X70089Y-73011D01*
X70244Y-73191D01*
X70404Y-73352D01*
X70570Y-73494D01*
X70741Y-73617D01*
X70918Y-73721D01*
X71100Y-73806D01*
X71287Y-73872D01*
X71480Y-73920D01*
X71678Y-73948D01*
X71881Y-73957D01*
X72313Y-73943D01*
X72705Y-73899D01*
X72705Y-75223D01*
X72445Y-75270D01*
X72156Y-75304D01*
X71837Y-75324D01*
X71489Y-75331D01*
G37*
G36*
X-67732Y-71161D02*
X-69508Y-71161D01*
X-69508Y-64087D01*
X-69495Y-63605D01*
X-69457Y-63157D01*
X-69394Y-62745D01*
X-69305Y-62369D01*
X-69192Y-62028D01*
X-69052Y-61722D01*
X-68888Y-61452D01*
X-68698Y-61217D01*
X-68481Y-61014D01*
X-68235Y-60837D01*
X-67959Y-60688D01*
X-67655Y-60566D01*
X-67321Y-60471D01*
X-66957Y-60403D01*
X-66564Y-60363D01*
X-66142Y-60349D01*
X-65852Y-60356D01*
X-65573Y-60378D01*
X-65307Y-60413D01*
X-65052Y-60463D01*
X-64810Y-60527D01*
X-64580Y-60606D01*
X-64362Y-60698D01*
X-64156Y-60805D01*
X-63959Y-60929D01*
X-63768Y-61074D01*
X-63583Y-61238D01*
X-63404Y-61422D01*
X-63231Y-61627D01*
X-63064Y-61851D01*
X-62748Y-62360D01*
X-62718Y-62360D01*
X-62684Y-61306D01*
X-62659Y-60810D01*
X-62640Y-60545D01*
X-60972Y-60545D01*
X-60998Y-60841D01*
X-61016Y-61318D01*
X-61031Y-62812D01*
X-61031Y-71161D01*
X-62797Y-71161D01*
X-62797Y-65009D01*
X-62808Y-64632D01*
X-62843Y-64277D01*
X-62900Y-63942D01*
X-62981Y-63629D01*
X-63084Y-63336D01*
X-63211Y-63065D01*
X-63360Y-62815D01*
X-63533Y-62586D01*
X-63725Y-62381D01*
X-63934Y-62204D01*
X-64160Y-62054D01*
X-64403Y-61931D01*
X-64663Y-61836D01*
X-64940Y-61767D01*
X-65234Y-61726D01*
X-65544Y-61713D01*
X-65954Y-61729D01*
X-66312Y-61777D01*
X-66616Y-61856D01*
X-66869Y-61968D01*
X-67079Y-62116D01*
X-67259Y-62304D01*
X-67408Y-62533D01*
X-67526Y-62802D01*
X-67616Y-63121D01*
X-67680Y-63499D01*
X-67719Y-63935D01*
X-67732Y-64431D01*
X-67732Y-71161D01*
G37*
G36*
X-8482Y-71161D02*
X-10258Y-71161D01*
X-10258Y-64087D01*
X-10245Y-63605D01*
X-10207Y-63157D01*
X-10144Y-62745D01*
X-10055Y-62369D01*
X-9942Y-62028D01*
X-9802Y-61722D01*
X-9638Y-61452D01*
X-9448Y-61217D01*
X-9231Y-61014D01*
X-8985Y-60837D01*
X-8709Y-60688D01*
X-8405Y-60566D01*
X-8071Y-60471D01*
X-7707Y-60403D01*
X-7314Y-60363D01*
X-6892Y-60349D01*
X-6602Y-60356D01*
X-6323Y-60378D01*
X-6057Y-60413D01*
X-5802Y-60463D01*
X-5560Y-60527D01*
X-5330Y-60606D01*
X-5112Y-60698D01*
X-4906Y-60805D01*
X-4709Y-60929D01*
X-4518Y-61074D01*
X-4333Y-61238D01*
X-4154Y-61422D01*
X-3981Y-61627D01*
X-3814Y-61851D01*
X-3498Y-62360D01*
X-3468Y-62360D01*
X-3434Y-61306D01*
X-3409Y-60810D01*
X-3390Y-60545D01*
X-1722Y-60545D01*
X-1748Y-60841D01*
X-1766Y-61318D01*
X-1781Y-62812D01*
X-1781Y-71161D01*
X-3547Y-71161D01*
X-3547Y-65009D01*
X-3558Y-64632D01*
X-3593Y-64277D01*
X-3650Y-63942D01*
X-3731Y-63629D01*
X-3834Y-63336D01*
X-3961Y-63065D01*
X-4110Y-62815D01*
X-4283Y-62586D01*
X-4475Y-62381D01*
X-4684Y-62204D01*
X-4910Y-62054D01*
X-5153Y-61931D01*
X-5413Y-61836D01*
X-5690Y-61767D01*
X-5984Y-61726D01*
X-6294Y-61713D01*
X-6704Y-61729D01*
X-7062Y-61777D01*
X-7366Y-61856D01*
X-7619Y-61968D01*
X-7829Y-62116D01*
X-8009Y-62304D01*
X-8158Y-62533D01*
X-8276Y-62802D01*
X-8366Y-63121D01*
X-8430Y-63499D01*
X-8469Y-63935D01*
X-8482Y-64431D01*
X-8482Y-71161D01*
G37*
G36*
X-79590Y-49825D02*
X-88253Y-49825D01*
X-88253Y-48324D01*
X-84888Y-48324D01*
X-84888Y-36001D01*
X-83259Y-36001D01*
X-79992Y-38248D01*
X-79992Y-39916D01*
X-83112Y-37689D01*
X-83112Y-48324D01*
X-79590Y-48324D01*
X-79590Y-49825D01*
G37*
G36*
X47082Y-49825D02*
X45110Y-49825D01*
X48936Y-44350D01*
X45335Y-39209D01*
X47307Y-39209D01*
X49937Y-43340D01*
X52586Y-39209D01*
X54538Y-39209D01*
X50938Y-44370D01*
X54715Y-49825D01*
X52812Y-49825D01*
X49937Y-45469D01*
X47082Y-49825D01*
G37*
G36*
X37636Y-49825D02*
X28776Y-49825D01*
X28776Y-48295D01*
X35762Y-48295D01*
X35762Y-36001D01*
X37636Y-36001D01*
X37636Y-49825D01*
G37*
G36*
X-3475Y-28646D02*
X-3929Y-28631D01*
X-4377Y-28587D01*
X-4821Y-28514D01*
X-5261Y-28411D01*
X-5261Y-27106D01*
X-4672Y-27209D01*
X-4436Y-27235D01*
X-4240Y-27243D01*
X-3954Y-27224D01*
X-3714Y-27166D01*
X-3520Y-27069D01*
X-3372Y-26934D01*
X-3262Y-26751D01*
X-3184Y-26511D01*
X-3137Y-26214D01*
X-3122Y-25860D01*
X-3122Y-19159D01*
X-5084Y-19159D01*
X-5084Y-17873D01*
X-3122Y-17873D01*
X-3122Y-15499D01*
X-1944Y-15499D01*
X-1424Y-17873D01*
X-129Y-17873D01*
X-129Y-19159D01*
X-1356Y-19159D01*
X-1356Y-26242D01*
X-1364Y-26533D01*
X-1389Y-26806D01*
X-1430Y-27059D01*
X-1488Y-27294D01*
X-1563Y-27510D01*
X-1654Y-27707D01*
X-1761Y-27886D01*
X-1885Y-28045D01*
X-2026Y-28186D01*
X-2183Y-28308D01*
X-2357Y-28411D01*
X-2548Y-28496D01*
X-2755Y-28562D01*
X-2978Y-28609D01*
X-3218Y-28637D01*
X-3475Y-28646D01*
G37*
G36*
X-83366Y-71161D02*
X-85133Y-71161D01*
X-85133Y-56601D01*
X-83366Y-56601D01*
X-83366Y-71161D01*
G37*
G36*
X-52054Y-71161D02*
X-53820Y-71161D01*
X-53820Y-56601D01*
X-52054Y-56601D01*
X-52054Y-71161D01*
G37*
G36*
X-47585Y-71161D02*
X-49351Y-71161D01*
X-49351Y-56601D01*
X-47585Y-56601D01*
X-47585Y-71161D01*
G37*
G36*
X-42578Y-49825D02*
X-44344Y-49825D01*
X-44344Y-44292D01*
X-44353Y-43863D01*
X-44380Y-43460D01*
X-44425Y-43082D01*
X-44488Y-42730D01*
X-44570Y-42404D01*
X-44669Y-42103D01*
X-44787Y-41828D01*
X-44923Y-41579D01*
X-45075Y-41357D01*
X-45244Y-41165D01*
X-45430Y-41002D01*
X-45631Y-40869D01*
X-45849Y-40765D01*
X-46083Y-40691D01*
X-46334Y-40647D01*
X-46600Y-40632D01*
X-46880Y-40638D01*
X-47130Y-40656D01*
X-47351Y-40687D01*
X-47542Y-40730D01*
X-47542Y-39111D01*
X-47182Y-39038D01*
X-46826Y-39013D01*
X-46583Y-39021D01*
X-46354Y-39044D01*
X-46139Y-39083D01*
X-45938Y-39138D01*
X-45751Y-39209D01*
X-45579Y-39295D01*
X-45420Y-39396D01*
X-45276Y-39513D01*
X-45140Y-39652D01*
X-45009Y-39818D01*
X-44882Y-40010D01*
X-44758Y-40230D01*
X-44523Y-40750D01*
X-44304Y-41378D01*
X-44265Y-41378D01*
X-44246Y-40654D01*
X-44187Y-39209D01*
X-42519Y-39209D01*
X-42563Y-40504D01*
X-42578Y-41682D01*
X-42578Y-49825D01*
G37*
G36*
X-56513Y-71161D02*
X-58279Y-71161D01*
X-58279Y-60545D01*
X-56513Y-60545D01*
X-56513Y-71161D01*
G37*
G36*
X-43107Y-71161D02*
X-44873Y-71161D01*
X-44873Y-60545D01*
X-43107Y-60545D01*
X-43107Y-71161D01*
G37*
G36*
X13925Y-71161D02*
X12159Y-71161D01*
X12159Y-60545D01*
X13925Y-60545D01*
X13925Y-71161D01*
G37*
G36*
X-91082Y-49825D02*
X-92995Y-49825D01*
X-92995Y-47677D01*
X-91082Y-47677D01*
X-91082Y-49825D01*
G37*
G36*
X-7253Y-28489D02*
X-9167Y-28489D01*
X-9167Y-26341D01*
X-7253Y-26341D01*
X-7253Y-28489D01*
G37*
G36*
X-56513Y-58289D02*
X-58279Y-58289D01*
X-58279Y-56601D01*
X-56513Y-56601D01*
X-56513Y-58289D01*
G37*
G36*
X-43107Y-58289D02*
X-44873Y-58289D01*
X-44873Y-56601D01*
X-43107Y-56601D01*
X-43107Y-58289D01*
G37*
G36*
X13925Y-58289D02*
X12159Y-58289D01*
X12159Y-56601D01*
X13925Y-56601D01*
X13925Y-58289D01*
G37*
M02*
