G04 EAGLE Gerber RS-274X export*
G75*
%MOMM*%
%FSLAX34Y34*%
%LPD*%
%INSoldermask Top*%
%IPPOS*%
%AMOC8*
5,1,8,0,0,1.08239X$1,22.5*%
G01*
G04 Define Apertures*
%ADD10R,1.711200X1.711200*%
%ADD11C,1.711200*%
%ADD12C,1.703200*%
%ADD13C,1.463200*%
%ADD14R,2.070100X2.070100*%
%ADD15C,2.070100*%
G36*
X-187302Y151895D02*
X-186712Y152840D01*
X-185958Y153649D01*
X-185035Y154276D01*
X-183995Y154681D01*
X-182891Y154845D01*
X-181778Y154759D01*
X-180713Y154427D01*
X-179748Y153867D01*
X-178895Y153075D01*
X-178240Y152112D01*
X-177816Y151028D01*
X-177643Y149877D01*
X-177731Y148716D01*
X-178075Y147604D01*
X-178664Y146584D01*
X-179491Y145766D01*
X-180468Y145159D01*
X-181555Y144785D01*
X-182698Y144662D01*
X-183840Y144797D01*
X-184923Y145182D01*
X-185892Y145797D01*
X-186687Y146588D01*
X-187288Y147538D01*
X-187663Y148598D01*
X-187793Y149715D01*
X-187670Y150833D01*
X-187302Y151895D01*
G37*
G36*
X24546Y245613D02*
X25659Y245666D01*
X26753Y245507D01*
X27794Y245104D01*
X28720Y244480D01*
X29483Y243666D01*
X30045Y242702D01*
X30380Y241637D01*
X30468Y240525D01*
X30302Y239373D01*
X29884Y238287D01*
X29234Y237321D01*
X28386Y236523D01*
X27382Y235934D01*
X26271Y235584D01*
X25098Y235488D01*
X23954Y235702D01*
X22899Y236160D01*
X21973Y236841D01*
X21221Y237711D01*
X20682Y238726D01*
X20382Y239836D01*
X20337Y240982D01*
X20533Y242086D01*
X20972Y243122D01*
X21630Y244033D01*
X22475Y244775D01*
X23463Y245311D01*
X24546Y245613D01*
G37*
G36*
X173253Y85816D02*
X174193Y86414D01*
X175223Y86817D01*
X176326Y86983D01*
X177439Y86900D01*
X178506Y86570D01*
X179472Y86012D01*
X180290Y85252D01*
X180918Y84331D01*
X181344Y83248D01*
X181519Y82097D01*
X181434Y80936D01*
X181092Y79823D01*
X180511Y78813D01*
X179721Y77959D01*
X178748Y77294D01*
X177649Y76913D01*
X176506Y76788D01*
X175364Y76921D01*
X174280Y77304D01*
X173308Y77919D01*
X172498Y78734D01*
X171891Y79708D01*
X171515Y80764D01*
X171383Y81881D01*
X171503Y82999D01*
X171869Y84062D01*
X172462Y85017D01*
X173253Y85816D01*
G37*
G36*
X216036Y-119879D02*
X215393Y-120789D01*
X214594Y-121553D01*
X213636Y-122125D01*
X212574Y-122470D01*
X211463Y-122570D01*
X210357Y-122420D01*
X209312Y-122028D01*
X208381Y-121413D01*
X207576Y-120573D01*
X206977Y-119575D01*
X206615Y-118468D01*
X206509Y-117309D01*
X206664Y-116155D01*
X207071Y-115064D01*
X207718Y-114080D01*
X208591Y-113311D01*
X209601Y-112761D01*
X210708Y-112450D01*
X211856Y-112393D01*
X212989Y-112594D01*
X214048Y-113041D01*
X214979Y-113711D01*
X215728Y-114546D01*
X216273Y-115529D01*
X216586Y-116609D01*
X216651Y-117731D01*
X216465Y-118840D01*
X216036Y-119879D01*
G37*
G36*
X-24226Y-246409D02*
X-25332Y-246538D01*
X-26435Y-246453D01*
X-27501Y-246122D01*
X-28466Y-245563D01*
X-29283Y-244802D01*
X-29910Y-243879D01*
X-30316Y-242839D01*
X-30480Y-241736D01*
X-30393Y-240575D01*
X-30049Y-239463D01*
X-29467Y-238454D01*
X-28675Y-237601D01*
X-27713Y-236945D01*
X-26629Y-236520D01*
X-25464Y-236345D01*
X-24309Y-236481D01*
X-23225Y-236865D01*
X-22255Y-237482D01*
X-21445Y-238299D01*
X-20838Y-239275D01*
X-20464Y-240362D01*
X-20340Y-241502D01*
X-20462Y-242617D01*
X-20829Y-243680D01*
X-21424Y-244634D01*
X-22216Y-245432D01*
X-23166Y-246034D01*
X-24226Y-246409D01*
G37*
G36*
X150522Y74483D02*
X151462Y75080D01*
X152492Y75484D01*
X153595Y75650D01*
X154708Y75566D01*
X155774Y75237D01*
X156741Y74678D01*
X157559Y73919D01*
X158187Y72997D01*
X158613Y71914D01*
X158788Y70763D01*
X158703Y69602D01*
X158361Y68489D01*
X157780Y67480D01*
X156989Y66625D01*
X156017Y65961D01*
X154918Y65580D01*
X153775Y65455D01*
X152633Y65587D01*
X151549Y65971D01*
X150577Y66585D01*
X149767Y67401D01*
X149159Y68374D01*
X148783Y69431D01*
X148652Y70547D01*
X148772Y71665D01*
X149138Y72729D01*
X149731Y73684D01*
X150522Y74483D01*
G37*
G36*
X-202905Y131852D02*
X-202315Y132797D01*
X-201561Y133606D01*
X-200638Y134233D01*
X-199598Y134638D01*
X-198494Y134802D01*
X-197381Y134716D01*
X-196316Y134384D01*
X-195351Y133824D01*
X-194498Y133032D01*
X-193843Y132070D01*
X-193418Y130986D01*
X-193246Y129834D01*
X-193334Y128673D01*
X-193677Y127561D01*
X-194267Y126541D01*
X-195094Y125723D01*
X-196071Y125116D01*
X-197158Y124742D01*
X-198301Y124619D01*
X-199443Y124754D01*
X-200526Y125139D01*
X-201494Y125755D01*
X-202290Y126545D01*
X-202891Y127495D01*
X-203266Y128555D01*
X-203395Y129672D01*
X-203273Y130790D01*
X-202905Y131852D01*
G37*
G36*
X-230579Y-88956D02*
X-229577Y-88469D01*
X-228509Y-88184D01*
X-227393Y-88144D01*
X-226297Y-88353D01*
X-225275Y-88801D01*
X-224378Y-89465D01*
X-223651Y-90313D01*
X-223132Y-91300D01*
X-222830Y-92424D01*
X-222787Y-93587D01*
X-223003Y-94731D01*
X-223469Y-95798D01*
X-224160Y-96735D01*
X-225042Y-97495D01*
X-226084Y-98045D01*
X-227219Y-98299D01*
X-228369Y-98294D01*
X-229489Y-98033D01*
X-230522Y-97530D01*
X-231418Y-96809D01*
X-232131Y-95907D01*
X-232624Y-94871D01*
X-232878Y-93779D01*
X-232882Y-92654D01*
X-232637Y-91557D01*
X-232153Y-90542D01*
X-231455Y-89660D01*
X-230579Y-88956D01*
G37*
G36*
X199305Y-138991D02*
X198662Y-139900D01*
X197863Y-140664D01*
X196905Y-141237D01*
X195844Y-141582D01*
X194732Y-141682D01*
X193626Y-141532D01*
X192581Y-141139D01*
X191650Y-140525D01*
X190845Y-139685D01*
X190246Y-138686D01*
X189885Y-137579D01*
X189778Y-136420D01*
X189933Y-135266D01*
X190340Y-134175D01*
X190988Y-133191D01*
X191860Y-132422D01*
X192870Y-131872D01*
X193977Y-131562D01*
X195126Y-131505D01*
X196258Y-131705D01*
X197317Y-132152D01*
X198248Y-132822D01*
X198997Y-133657D01*
X199543Y-134640D01*
X199856Y-135720D01*
X199921Y-136842D01*
X199734Y-137951D01*
X199305Y-138991D01*
G37*
G36*
X-206711Y-80269D02*
X-205709Y-79782D01*
X-204640Y-79497D01*
X-203525Y-79457D01*
X-202429Y-79666D01*
X-201407Y-80114D01*
X-200510Y-80778D01*
X-199783Y-81625D01*
X-199263Y-82612D01*
X-198962Y-83736D01*
X-198919Y-84900D01*
X-199135Y-86044D01*
X-199600Y-87111D01*
X-200292Y-88048D01*
X-201174Y-88808D01*
X-202216Y-89358D01*
X-203351Y-89612D01*
X-204501Y-89607D01*
X-205620Y-89346D01*
X-206654Y-88842D01*
X-207550Y-88121D01*
X-208263Y-87219D01*
X-208756Y-86184D01*
X-209010Y-85091D01*
X-209014Y-83967D01*
X-208768Y-82870D01*
X-208285Y-81855D01*
X-207587Y-80973D01*
X-206711Y-80269D01*
G37*
G36*
X1172Y-246099D02*
X66Y-246227D01*
X-1037Y-246143D01*
X-2103Y-245812D01*
X-3068Y-245252D01*
X-3885Y-244492D01*
X-4512Y-243568D01*
X-4918Y-242529D01*
X-5082Y-241425D01*
X-4994Y-240265D01*
X-4651Y-239152D01*
X-4069Y-238144D01*
X-3277Y-237291D01*
X-2315Y-236635D01*
X-1231Y-236210D01*
X-66Y-236035D01*
X1089Y-236170D01*
X2173Y-236555D01*
X3144Y-237171D01*
X3953Y-237988D01*
X4560Y-238965D01*
X4935Y-240052D01*
X5058Y-241192D01*
X4936Y-242307D01*
X4569Y-243370D01*
X3974Y-244324D01*
X3182Y-245122D01*
X2232Y-245723D01*
X1172Y-246099D01*
G37*
G36*
X-814Y247031D02*
X299Y247084D01*
X1393Y246925D01*
X2434Y246522D01*
X3359Y245898D01*
X4122Y245084D01*
X4685Y244120D01*
X5019Y243055D01*
X5108Y241943D01*
X4942Y240791D01*
X4524Y239705D01*
X3874Y238738D01*
X3026Y237941D01*
X2021Y237352D01*
X911Y237002D01*
X-263Y236906D01*
X-1406Y237120D01*
X-2461Y237578D01*
X-3388Y238259D01*
X-4139Y239129D01*
X-4679Y240144D01*
X-4979Y241254D01*
X-5024Y242400D01*
X-4827Y243504D01*
X-4388Y244540D01*
X-3730Y245451D01*
X-2885Y246193D01*
X-1897Y246729D01*
X-814Y247031D01*
G37*
D10*
G36*
X-118165Y-58206D02*
X-133973Y-64754D01*
X-140521Y-48946D01*
X-124713Y-42398D01*
X-118165Y-58206D01*
G37*
D11*
X55433Y22961D03*
D12*
X-91672Y9653D03*
X57996Y71648D03*
X36738Y-88692D03*
D13*
X121768Y120410D03*
X183032Y158990D03*
X-36196Y191005D03*
X36196Y189995D03*
X-175393Y72166D03*
X-133247Y131034D03*
X-151282Y-102358D03*
X-204318Y-151642D03*
X23499Y-178053D03*
X-48899Y-177547D03*
X174359Y-73168D03*
X134609Y-133681D03*
D14*
G36*
X245650Y79975D02*
X253270Y60729D01*
X234024Y53109D01*
X226404Y72355D01*
X245650Y79975D01*
G37*
D15*
X215900Y127000D03*
M02*
